<?xml version="1.0" standalone="no"?>
<!DOCTYPE svg PUBLIC "-//W3C//DTD SVG 20010904//EN"
 "http://www.w3.org/TR/2001/REC-SVG-20010904/DTD/svg10.dtd">
<svg version="1.0" xmlns="http://www.w3.org/2000/svg"
 width="1015.000000pt" height="1015.000000pt" viewBox="0 0 1015.000000 1015.000000"
 preserveAspectRatio="xMidYMid meet">
<metadata>
Created by potrace 1.11, written by Peter Selinger 2001-2013
</metadata>
<g transform="translate(0.000000,1015.000000) scale(0.100000,-0.100000)"
fill="#000000" stroke="none">
<path d="M3 9210 c0 -115 3 -210 6 -210 3 0 5 -290 3 -645 -1 -355 1 -645 5
-645 5 0 7 -127 5 -282 -4 -337 12 -707 34 -809 22 -105 21 -101 33 -131 6
-16 8 -28 5 -28 -4 0 -1 -6 5 -13 6 -8 8 -17 4 -20 -3 -4 0 -7 7 -7 7 0 11 -2
8 -5 -9 -10 49 -163 103 -270 78 -157 184 -325 253 -402 21 -23 38 -44 37 -47
-2 -21 297 -310 379 -366 12 -8 36 -27 54 -42 17 -15 34 -28 38 -28 4 0 35
-19 70 -43 35 -24 88 -56 118 -72 30 -15 58 -33 62 -39 4 -6 8 -7 8 -3 0 5 16
-1 36 -12 61 -36 304 -131 374 -146 8 -2 53 -12 100 -24 164 -39 293 -54 480
-53 211 0 329 13 515 57 61 14 121 28 134 31 34 7 73 29 92 50 16 19 22 54 8
54 -3 0 -9 8 -11 18 -6 21 -244 353 -261 364 -7 4 -9 8 -5 8 8 0 -12 27 -44
62 -10 10 -16 18 -13 18 9 0 -59 66 -70 68 -21 3 -142 13 -197 16 -32 2 -61 4
-65 5 -5 2 -46 4 -93 5 -156 5 -247 22 -425 79 -55 17 -102 32 -105 32 -30 5
-288 149 -302 170 -4 5 -11 10 -15 10 -5 0 -15 6 -23 13 -8 7 -25 20 -36 30
-115 94 -146 122 -201 189 -39 47 -63 75 -85 102 -10 12 -18 26 -18 31 0 6 -4
10 -10 10 -5 0 -10 7 -10 15 0 8 -4 15 -8 15 -12 0 -97 164 -127 245 -34 88
-53 180 -72 340 -12 105 -16 288 -19 943 l-3 814 692 -6 c767 -7 807 -8 807
-17 0 -4 17 -7 38 -8 40 -1 83 -7 122 -16 14 -3 41 -7 60 -10 19 -2 35 -4 35
-5 0 -1 7 -3 15 -5 8 -2 26 -6 40 -9 14 -3 35 -7 46 -10 43 -9 188 -57 199
-65 5 -5 27 -14 47 -20 21 -7 57 -23 80 -36 24 -13 71 -38 106 -56 34 -17 62
-36 62 -40 0 -5 6 -9 14 -9 7 0 25 -12 40 -26 14 -15 26 -24 26 -20 0 3 9 -2
19 -11 11 -10 26 -23 33 -28 55 -42 154 -127 223 -190 18 -16 45 -41 60 -55
24 -21 164 -169 422 -443 40 -43 73 -81 73 -83 0 -2 19 -25 43 -50 114 -124
177 -187 177 -178 0 5 4 2 10 -6 5 -9 26 -15 55 -15 41 -1 51 3 80 34 49 51
212 245 265 316 25 33 47 62 50 65 20 20 49 102 47 132 -4 47 -18 66 -161 227
-251 282 -628 652 -835 821 -23 19 -50 42 -59 50 -8 8 -18 15 -21 15 -3 0 -22
12 -41 26 -19 15 -48 35 -65 45 -16 10 -32 21 -35 24 -17 17 -71 50 -84 50 -8
0 -16 4 -18 9 -3 8 -222 123 -240 127 -5 1 -11 3 -15 4 -5 1 -11 2 -15 1 -5 0
-8 3 -8 9 0 6 -3 9 -7 8 -5 0 -15 2 -23 5 -93 39 -322 105 -390 112 -14 2 -25
4 -25 5 0 3 -54 11 -82 13 -13 0 -23 4 -23 7 0 3 -12 6 -27 7 -68 3 -99 6
-107 11 -10 6 -54 10 -123 12 -24 1 -43 5 -43 8 0 4 -28 7 -63 7 -34 1 -173 6
-308 13 -151 7 -573 12 -1087 12 l-840 0 1 -210z"/>
<path d="M8220 9409 c-204 -9 -316 -17 -423 -29 -48 -5 -91 -9 -95 -9 -4 1 -9
0 -12 -1 -3 -2 -19 -3 -35 -4 -17 -1 -35 -5 -41 -8 -6 -4 -19 -5 -30 -4 -10 2
-23 1 -29 -2 -5 -4 -19 -7 -30 -9 -45 -5 -91 -13 -115 -18 -14 -4 -31 -7 -37
-7 -7 -1 -13 -4 -13 -7 0 -3 -15 -7 -33 -8 -17 -1 -88 -20 -157 -43 -69 -23
-129 -43 -135 -44 -5 -1 -20 -7 -31 -14 -12 -6 -24 -8 -28 -5 -3 3 -6 1 -6 -6
0 -7 -4 -9 -10 -6 -5 3 -10 1 -10 -6 0 -7 -3 -10 -6 -6 -8 7 -236 -110 -246
-127 -4 -6 -8 -6 -8 -1 0 6 -6 3 -13 -6 -7 -9 -15 -16 -20 -17 -15 -2 -67 -36
-67 -44 0 -4 -7 -8 -15 -8 -8 0 -15 -4 -15 -10 0 -5 -7 -10 -15 -10 -8 0 -15
-5 -15 -11 0 -5 -4 -8 -9 -5 -5 4 -11 2 -13 -2 -1 -5 -61 -56 -133 -113 -158
-126 -489 -450 -737 -721 -222 -242 -237 -263 -233 -323 2 -38 46 -128 75
-155 3 -3 21 -25 40 -50 53 -70 259 -308 272 -316 19 -12 98 -14 98 -4 0 6 5
10 11 10 10 0 60 49 203 199 21 23 36 41 33 41 -2 0 16 22 42 48 25 26 64 68
86 93 145 160 333 352 437 445 161 145 162 146 194 169 16 11 36 28 46 38 10
9 18 14 18 10 0 -3 10 2 23 13 42 37 115 84 161 104 25 10 46 24 46 30 0 5 7
10 15 10 8 0 45 14 82 31 80 37 173 70 173 62 0 -3 6 -1 13 5 6 5 28 13 47 16
40 8 65 14 65 16 0 1 11 3 25 5 14 2 36 6 50 10 14 4 39 8 55 9 17 2 50 6 75
10 165 24 289 28 913 33 l688 5 -4 -819 c-3 -527 -9 -854 -16 -918 -13 -110
-44 -275 -60 -316 -5 -15 -7 -30 -4 -33 4 -3 1 -6 -5 -6 -7 0 -12 -6 -12 -13
0 -21 -111 -237 -121 -237 -5 0 -9 -7 -9 -15 0 -8 -4 -15 -9 -15 -5 0 -12 -8
-15 -18 -3 -9 -18 -31 -33 -49 -16 -17 -46 -52 -68 -78 -50 -59 -104 -115
-111 -115 -3 0 -19 -12 -35 -27 -61 -56 -69 -63 -79 -63 -5 0 -13 -6 -17 -13
-19 -31 -334 -203 -347 -189 -3 3 -6 1 -6 -5 0 -5 -6 -10 -12 -11 -15 -1 -37
-7 -58 -15 -80 -30 -253 -71 -330 -77 -62 -4 -208 -12 -267 -13 -40 -1 -73 -5
-73 -8 0 -3 -19 -6 -42 -7 -88 -1 -95 -5 -169 -91 -14 -16 -195 -266 -291
-403 -16 -21 -28 -50 -28 -64 0 -31 30 -72 48 -66 6 2 12 0 12 -5 0 -6 6 -10
13 -11 6 0 55 -12 107 -25 118 -31 271 -57 370 -64 125 -9 274 -12 290 -7 8 3
51 7 95 9 91 4 225 27 326 55 38 10 69 17 69 15 0 -2 27 7 60 20 33 13 60 21
60 18 0 -3 6 0 13 6 8 6 17 8 20 4 4 -3 7 -2 7 3 0 5 8 10 18 11 21 2 192 76
227 99 14 9 25 12 25 8 0 -5 4 -4 8 2 4 6 27 21 51 34 48 24 201 122 233 149
11 9 32 26 46 38 15 13 30 23 33 23 13 0 308 287 302 294 -3 2 4 11 16 18 12
7 21 17 21 21 0 8 12 23 63 78 9 10 17 24 17 29 0 6 5 10 11 10 5 0 7 5 4 10
-3 6 -2 10 2 10 5 0 17 15 28 33 10 17 24 38 31 44 7 7 27 39 45 70 18 32 37
61 43 65 6 4 7 8 3 8 -10 0 31 71 47 82 6 4 8 8 4 8 -4 0 7 29 23 65 17 35 32
70 33 77 2 7 8 26 15 42 6 16 13 38 16 50 2 11 4 23 5 26 2 3 2 8 1 13 0 4 3
7 9 7 6 0 9 3 8 8 -2 8 22 93 30 107 3 5 7 20 8 33 2 14 8 47 13 74 22 100 32
446 38 1328 3 498 7 1028 8 1178 l3 272 -887 -2 c-487 0 -956 -4 -1041 -9z"/>
<path d="M2234 7861 c-3 -3 -15 -7 -27 -9 -30 -5 -52 -10 -52 -12 0 -1 -11 -4
-25 -6 -42 -8 -185 -81 -218 -113 -18 -16 -32 -26 -32 -23 0 13 -100 -101
-135 -153 -40 -60 -93 -182 -101 -230 -2 -16 -7 -46 -10 -65 -13 -78 -5 -211
15 -248 6 -11 8 -22 6 -24 -14 -14 125 -268 146 -268 5 0 9 -6 9 -14 0 -8 24
-33 53 -55 28 -23 63 -51 77 -63 30 -25 162 -89 190 -91 11 -1 20 -4 20 -8 0
-4 8 -6 18 -4 9 1 22 0 27 -3 19 -11 148 -16 215 -8 56 6 77 11 115 26 17 6
30 10 30 8 0 -2 26 8 58 22 31 13 57 28 57 32 0 5 7 8 15 8 8 0 15 4 15 8 0 5
9 13 20 18 55 25 231 240 212 258 -3 4 -1 10 5 14 14 9 54 148 45 156 -3 3 -1
6 4 6 5 0 10 17 11 38 1 20 4 61 6 90 1 29 0 55 -4 58 -4 2 -6 21 -5 42 2 20
-2 43 -7 50 -5 6 -7 12 -4 12 3 0 1 15 -4 33 -6 17 -12 39 -13 47 -7 41 -57
144 -100 204 -36 50 -103 126 -112 126 -3 0 -23 14 -44 30 -21 17 -41 30 -45
30 -3 0 -13 7 -22 15 -8 8 -19 13 -24 10 -5 -4 -9 -2 -9 2 0 7 -63 31 -102 39
-5 1 -9 3 -10 4 -11 9 -256 19 -264 11z"/>
<path d="M7714 7861 c-2 -2 -14 -5 -26 -5 -13 -1 -29 -5 -36 -10 -7 -4 -16 -5
-19 -2 -3 3 -24 -4 -47 -16 -22 -11 -42 -20 -43 -19 -9 5 -23 -1 -43 -19 -13
-11 -29 -20 -37 -20 -7 0 -13 -4 -13 -10 0 -5 -4 -10 -10 -10 -10 0 -25 -12
-82 -67 -37 -37 -40 -40 -86 -105 -33 -48 -67 -117 -64 -130 1 -5 -2 -8 -6 -8
-5 0 -9 -6 -10 -12 -1 -23 -10 -56 -21 -76 -6 -11 -8 -22 -4 -25 3 -3 2 -14
-2 -24 -6 -14 -16 -110 -16 -158 0 -19 10 -110 15 -135 17 -82 29 -120 38
-120 5 0 7 -4 4 -9 -6 -9 41 -108 62 -130 7 -8 21 -26 30 -40 9 -14 35 -42 56
-61 21 -19 47 -43 58 -52 10 -10 23 -18 28 -18 6 0 10 -4 10 -10 0 -5 5 -10
11 -10 6 0 23 -9 38 -19 14 -10 35 -21 46 -23 11 -1 26 -9 34 -16 7 -7 20 -11
27 -8 7 3 16 1 19 -5 4 -5 11 -7 16 -4 5 4 9 2 9 -3 0 -6 9 -8 20 -5 11 3 20
1 20 -3 0 -10 34 -13 130 -12 106 0 130 2 130 8 0 3 10 7 23 7 58 3 205 71
272 125 48 40 136 131 130 136 -2 2 5 14 16 26 29 29 112 203 104 216 -3 5 -2
10 3 10 9 0 11 5 15 60 1 19 5 40 8 45 6 9 5 130 -1 130 -1 0 -3 14 -5 30 -8
95 -95 305 -127 305 -5 0 -6 4 -3 10 3 5 -3 15 -15 22 -11 7 -20 17 -20 23 0
5 -18 28 -40 49 -22 22 -40 37 -40 34 0 -3 -13 7 -30 22 -40 37 -180 105 -260
126 -57 14 -255 26 -266 15z"/>
<path d="M4999 7421 c-27 -27 -49 -53 -49 -58 0 -5 -9 -19 -20 -31 -12 -12
-17 -22 -13 -22 4 0 3 -4 -3 -8 -11 -8 -94 -127 -94 -136 0 -3 -20 -35 -45
-72 -25 -36 -45 -68 -45 -70 0 -9 -63 -99 -72 -102 -4 -2 -8 -8 -8 -12 0 -8
-37 -69 -58 -95 -4 -5 -34 -52 -67 -102 -32 -51 -63 -93 -68 -93 -4 0 -6 -3
-3 -8 2 -4 -27 -54 -65 -110 -38 -57 -69 -108 -69 -112 0 -5 -4 -10 -8 -12
-12 -4 -112 -155 -112 -167 0 -6 -8 -14 -17 -20 -10 -5 -17 -12 -15 -16 4 -8
-31 -65 -40 -65 -4 0 -8 -5 -8 -10 0 -12 -41 -73 -52 -78 -5 -2 -8 -10 -8 -18
0 -8 -5 -14 -11 -14 -5 0 -8 -4 -4 -9 3 -6 0 -13 -7 -18 -14 -9 -58 -68 -58
-78 0 -3 -9 -16 -21 -28 -26 -28 -84 -115 -100 -150 -7 -15 -16 -27 -21 -27
-5 0 -6 -4 -3 -10 3 -5 -1 -23 -10 -39 -25 -48 -19 -122 15 -196 16 -36 29
-68 29 -71 0 -4 3 -10 8 -13 5 -3 44 -55 86 -116 43 -60 83 -117 90 -125 7 -8
14 -19 16 -25 5 -12 34 -58 41 -65 3 -3 60 -88 125 -190 66 -102 124 -189 128
-195 8 -10 43 -63 62 -96 37 -61 201 -305 208 -307 4 -2 5 -8 1 -13 -3 -5 0
-9 5 -9 6 0 11 -7 11 -15 0 -8 5 -15 10 -15 6 0 10 -7 10 -15 0 -8 5 -15 10
-15 6 0 10 -7 10 -15 0 -8 5 -15 10 -15 6 0 10 -7 10 -15 0 -8 4 -15 8 -15 5
0 15 -12 23 -27 23 -45 161 -257 171 -264 5 -3 10 -10 10 -15 1 -11 50 -78 61
-82 4 -2 7 -8 7 -14 0 -14 21 -33 56 -51 29 -15 33 -14 65 5 19 11 37 26 42
34 4 7 14 20 22 28 8 8 59 83 114 168 55 84 106 161 115 171 9 9 16 18 15 20
-3 7 26 57 33 57 4 0 8 7 8 15 0 8 5 15 10 15 6 0 10 7 10 15 0 8 5 15 10 15
6 0 10 7 10 15 0 8 5 15 11 15 5 0 8 4 5 9 -3 5 1 11 9 15 8 3 15 9 15 14 0 5
20 40 45 78 63 97 69 105 81 118 6 6 11 16 12 21 1 6 9 18 17 28 8 9 15 20 15
23 0 3 14 23 30 44 17 21 30 42 30 47 0 5 7 18 15 28 37 47 195 289 200 306 4
10 11 19 16 19 5 0 9 7 9 15 0 8 5 15 10 15 6 0 10 4 10 10 0 5 8 19 18 30 9
11 26 36 37 54 42 70 168 246 177 246 5 0 6 5 3 10 -3 6 -1 10 6 10 7 0 9 3 6
6 -4 4 2 19 12 33 63 92 67 179 12 294 -22 45 -47 91 -55 102 -51 64 -116 157
-116 165 0 6 -4 10 -10 10 -5 0 -10 7 -10 15 0 9 -7 18 -15 21 -8 4 -12 10 -9
15 3 5 0 9 -5 9 -6 0 -11 7 -11 15 0 8 -4 15 -10 15 -5 0 -10 7 -10 15 0 8 -3
15 -7 15 -5 0 -26 28 -47 63 -80 128 -190 292 -200 299 -7 5 -7 8 -1 8 6 0 5
3 -1 8 -18 11 -103 149 -97 156 4 3 2 6 -4 6 -5 0 -33 37 -63 83 -88 137 -105
162 -113 165 -4 2 -5 8 -1 13 3 5 0 9 -5 9 -6 0 -11 6 -11 14 0 8 -4 16 -8 18
-10 4 -93 131 -92 141 0 4 -12 19 -26 32 -15 14 -24 25 -21 25 8 0 -56 101
-95 153 -17 20 -26 37 -21 37 4 0 3 4 -2 8 -6 4 -22 23 -35 42 -39 58 -99 110
-127 110 -16 0 -41 -17 -74 -49z m144 -1177 c26 -38 54 -76 61 -86 8 -9 12
-19 9 -22 -3 -3 2 -8 11 -12 9 -3 13 -10 10 -15 -3 -5 2 -12 10 -15 9 -3 13
-10 10 -15 -3 -5 0 -9 5 -9 6 0 11 -6 11 -14 0 -8 6 -21 13 -28 23 -24 58 -78
51 -78 -4 0 1 -7 12 -15 10 -8 15 -15 9 -15 -6 0 -6 -3 1 -8 6 -4 43 -54 81
-112 39 -58 87 -127 107 -154 19 -28 38 -63 41 -78 7 -31 -20 -99 -55 -136
-11 -11 -20 -24 -20 -27 0 -5 -39 -64 -50 -75 -3 -3 -11 -17 -19 -32 -8 -16
-18 -28 -23 -28 -4 0 -8 -6 -8 -14 0 -8 -3 -16 -7 -18 -11 -4 -63 -85 -63 -97
0 -5 -4 -11 -9 -13 -5 -1 -34 -42 -65 -90 -31 -48 -61 -90 -67 -93 -5 -4 -7
-10 -4 -15 3 -5 -3 -13 -12 -19 -10 -5 -16 -11 -14 -13 3 -2 -11 -27 -30 -56
-34 -52 -78 -79 -87 -52 -3 7 -13 20 -23 28 -11 9 -19 22 -19 29 0 7 -4 13 -8
13 -10 0 -78 112 -75 122 2 4 -1 8 -6 8 -4 0 -24 26 -44 58 -19 31 -50 77 -68
102 -19 25 -34 48 -34 52 0 3 -10 18 -22 32 -13 14 -20 26 -15 26 4 0 2 4 -3
8 -18 12 -156 221 -167 252 -10 31 5 100 22 100 5 0 11 8 15 19 3 10 15 29 26
42 11 13 50 70 86 126 36 57 71 103 76 103 6 0 8 3 4 6 -6 7 61 112 96 152 11
12 16 22 11 22 -5 0 -4 4 2 8 6 4 24 27 39 52 65 106 115 168 132 166 10 -1
39 -34 66 -72z"/>
<path d="M6327 2603 c-3 -5 -44 -100 -92 -213 -48 -113 -93 -218 -101 -235 -7
-16 -44 -104 -83 -193 l-69 -164 -17 39 c-9 21 -21 47 -26 58 -5 11 -74 171
-154 355 l-144 335 -241 2 c-132 1 -240 -2 -240 -6 0 -5 34 -89 76 -188 192
-449 620 -1457 652 -1533 45 -110 47 -112 96 -108 l40 3 155 387 c85 214 158
385 161 380 4 -4 24 -47 44 -97 21 -49 44 -103 51 -120 14 -32 127 -299 191
-453 40 -95 40 -94 99 -94 8 0 19 0 24 1 4 0 25 43 46 93 21 51 48 116 60 143
13 28 53 122 90 210 81 194 87 207 114 269 12 27 31 72 42 100 11 28 26 65 34
81 7 17 46 107 85 200 39 94 77 184 85 200 19 44 206 486 216 513 l9 22 -238
0 -238 0 -27 -57 c-14 -32 -56 -128 -92 -213 -37 -85 -75 -173 -85 -195 -23
-51 -119 -272 -132 -305 -8 -22 -20 0 -99 190 -49 118 -93 224 -98 235 -17 37
-47 109 -101 238 -40 94 -59 127 -71 127 -10 0 -20 -3 -22 -7z"/>
<path d="M690 2584 c-89 -19 -198 -75 -264 -134 -65 -60 -142 -180 -173 -270
-60 -170 -1 -357 158 -505 89 -82 166 -120 325 -161 164 -42 214 -58 271 -86
44 -22 73 -66 73 -111 0 -54 -91 -123 -177 -134 -98 -11 -223 74 -223 153 0
40 7 38 -90 19 -14 -3 -88 -16 -165 -30 -77 -14 -151 -28 -165 -31 -14 -3 -31
-6 -37 -6 -17 -2 -16 -9 3 -76 70 -242 237 -402 485 -462 77 -19 257 -17 359
3 187 39 374 174 445 322 86 178 65 380 -51 500 -119 123 -227 180 -469 250
-163 47 -202 65 -244 109 -19 20 -24 37 -24 73 0 97 55 147 159 146 90 -1 148
-48 160 -131 3 -26 8 -50 10 -53 2 -3 106 15 231 40 l228 47 -2 32 c-2 46 -28
124 -71 211 -65 134 -188 232 -347 277 -81 22 -316 27 -405 8z"/>
<path d="M3350 2593 c-14 -2 -59 -11 -100 -20 -41 -9 -77 -17 -80 -18 -3 0
-21 -6 -40 -13 -339 -129 -568 -394 -626 -726 -72 -414 159 -828 557 -999 147
-63 233 -80 404 -81 161 -1 233 11 363 60 294 110 513 350 594 651 30 113 30
316 0 431 -44 169 -111 289 -235 419 -138 145 -320 242 -542 289 -34 7 -257
12 -295 7z m299 -470 c115 -36 237 -140 291 -248 156 -316 -73 -675 -440 -691
-100 -4 -162 8 -248 47 -140 63 -242 179 -277 315 -30 120 -21 212 32 324 77
161 231 259 443 283 38 4 139 -11 199 -30z"/>
<path d="M8852 2400 c-50 -102 -155 -315 -234 -475 -78 -159 -143 -292 -143
-295 -1 -3 -57 -117 -125 -255 -224 -456 -298 -610 -295 -615 2 -3 110 -5 240
-5 l238 0 70 135 70 136 246 3 c135 1 278 3 317 4 l72 2 73 -137 c41 -75 81
-138 89 -140 8 -2 116 -3 240 -3 160 1 224 5 223 13 -3 13 -127 270 -436 902
-206 422 -320 657 -383 786 l-63 131 -54 -1 -55 -1 -90 -185z m194 -867 c26
-54 50 -105 55 -114 8 -15 -3 -17 -101 -17 -61 0 -112 4 -115 8 -6 10 96 219
107 220 5 0 29 -44 54 -97z"/>
</g>
</svg>
