<svg xmlns="http://www.w3.org/2000/svg">
  <path fill="#f7541b" fill-rule="evenodd" d="M36.88 54.114L28 70.011l-8.88-15.897C8.01 50.43 0 40.033 0 27.774 0 12.435 12.536 0 28 0s28 12.435 28 27.774c0 12.259-8.011 22.656-19.12 26.34z"/>
  <path fill="#FFF" fill-rule="evenodd" d="M34.122 36.692c-.285-.204-.482-.467-.592-.787l-1.29-3.935h-2.293l3.416-10.001L39.14 37h-3.93c-.44 0-.803-.102-1.088-.308zm-6.037-17.047c-.134.512-.273.984-.414 1.433l-.441 1.29c-.04.108-.081.224-.12.322l-.863 2.558-2.296 6.722h-.021l-.495 1.511-.882 2.58c-.11.217-.265.42-.498.601-.29.225-.645.338-1.065.338h-3.96l8.46-22.011h4.26l-1.63 4.774c-.012-.04-.024-.077-.035-.118z"/>
</svg>
