<svg xmlns="http://www.w3.org/2000/svg" width="137" height="22">
  <path fill-rule="evenodd" fill="#110F10" d="M132 22v-5h5v5h-5zM122 7l-5.721 11.685c-.18.35-.422.615-.727.795-.305.18-.653.27-1.043.27h-.69c-.39 0-.737-.09-1.042-.27-.305-.18-.548-.445-.728-.795L106 7v15h-4V0l3.749.035h.578c.165 0 .312.025.442.075.13.05.248.128.353.233.105.105.207.253.307.443l5.625 11.221c.2.381.393.776.578 1.187.185.41.362.831.532 1.261.17-.44.35-.868.54-1.284.19-.415.385-.818.585-1.209l5.61-11.176c.1-.19.203-.338.308-.443.105-.105.222-.183.352-.233.13-.05.278-.075.443-.075h.577L126 0v22h-4.021L122 7zM79 0h14v4h-9v5h7v4h-7v5h9v4H79V0zM65 22h-5V4h-6V0h17v4h-6v18zm-21.86-7.605L47.79 22H43.2c-.85 0-1.46-.32-1.83-.96l-3.63-6.283c-.16-.279-.348-.48-.563-.6-.215-.12-.517-.18-.907-.18h-1.29V22H30V0l7.02.02c1.58 0 2.927.288 4.042.612 1.115.326 2.025.778 2.73 1.358.705.58 1.218 1.265 1.538 2.055.32.79.48 1.65.48 2.58 0 .71-.095 1.38-.285 2.01-.19.63-.473 1.213-.848 1.747-.375.536-.835 1.013-1.38 1.433-.545.42-1.172.765-1.882 1.035.34.17.657.38.952.63.295.25.553.555.773.915zM39.922 4.75c-.625-.54-1.592-.81-2.902-.81h-2.04v6.074h2.04c.69 0 1.277-.088 1.762-.263.485-.175.883-.417 1.193-.727.31-.31.535-.673.675-1.088.14-.415.21-.862.21-1.342 0-.96-.313-1.304-.938-1.844zm-22.8 16.942c-.285-.204-.482-.467-.592-.787l-1.29-3.935h-2.293l3.416-10.001L22.14 22h-3.93c-.44 0-.803-.102-1.088-.308zM11.085 4.645c-.134.512-.273.984-.414 1.432l-.441 1.291c-.04.108-.081.224-.12.322l-.863 2.557-2.296 6.723H6.93l-.495 1.511-.882 2.58c-.11.217-.265.42-.498.601-.29.225-.645.338-1.065.338H.03L8.49-.011h4.26l-1.63 4.774c-.012-.04-.024-.077-.035-.118z"/>
</svg>
