<?xml version="1.0" encoding="UTF-8"?>
<!DOCTYPE svg PUBLIC "-//W3C//DTD SVG 1.1//EN" "http://www.w3.org/Graphics/SVG/1.1/DTD/svg11.dtd">
<!-- Creator: CorelDRAW 2020 (64-Bit) -->
<svg xmlns="http://www.w3.org/2000/svg" xml:space="preserve" width="286.319mm" height="245.251mm" version="1.1" style="shape-rendering:geometricPrecision; text-rendering:geometricPrecision; image-rendering:optimizeQuality; fill-rule:evenodd; clip-rule:evenodd"
viewBox="0 0 1375.21 1177.96"
 xmlns:xlink="http://www.w3.org/1999/xlink"
 xmlns:xodm="http://www.corel.com/coreldraw/odm/2003">
 <defs>
  <style type="text/css">
   <![CDATA[
    .fil0 {fill:black}
   ]]>
  </style>
 </defs>
 <g id="Layer_x0020_1">
  <metadata id="CorelCorpID_0Corel-Layer"/>
  <g id="_2473211018096">
   <polygon class="fil0" points="1133.72,1.27 1101.95,1.27 1101.95,2.54 1080.34,2.54 1080.34,3.81 1065.09,3.81 1065.09,5.08 1052.38,5.08 1052.38,6.35 1040.94,6.35 1040.94,7.63 1032.05,7.63 1032.05,8.9 1023.15,8.9 1023.15,10.17 1016.79,10.17 1016.79,11.44 1009.17,11.44 1009.17,12.71 1002.81,12.71 1002.81,13.98 997.73,13.98 997.73,15.25 991.37,15.25 991.37,16.52 986.29,16.52 986.29,17.79 982.48,17.79 982.48,19.06 977.39,19.06 977.39,20.34 973.58,20.34 973.58,21.61 968.5,21.61 968.5,22.88 964.68,22.88 964.68,24.15 962.14,24.15 962.14,25.42 958.33,25.42 958.33,26.69 954.51,26.69 954.51,27.96 950.7,27.96 950.7,29.23 948.16,29.23 948.16,30.5 944.35,30.5 944.35,31.77 941.8,31.77 941.8,33.05 939.26,33.05 939.26,34.32 936.72,34.32 936.72,35.59 932.91,35.59 932.91,36.86 930.37,36.86 930.37,38.13 927.82,38.13 927.82,39.4 925.28,39.4 925.28,40.67 922.74,40.67 922.74,41.94 920.2,41.94 920.2,43.21 918.93,43.21 918.93,44.48 916.38,44.48 916.38,45.76 913.84,45.76 913.84,47.03 911.3,47.03 911.3,48.3 910.03,48.3 910.03,49.57 907.49,49.57 907.49,50.84 904.95,50.84 904.95,52.11 903.67,52.11 903.67,53.38 901.13,53.38 901.13,54.65 899.86,54.65 899.86,55.92 897.32,55.92 897.32,57.19 894.78,57.19 894.78,58.47 893.51,58.47 893.51,59.74 892.24,59.74 892.24,61.01 889.69,61.01 889.69,62.28 888.42,62.28 888.42,63.55 885.88,63.55 885.88,64.82 884.61,64.82 884.61,66.09 882.07,66.09 882.07,67.36 880.8,67.36 880.8,68.63 879.53,68.63 879.53,69.9 876.98,69.9 876.98,71.18 875.71,71.18 875.71,72.45 874.44,72.45 874.44,73.72 871.9,73.72 871.9,74.99 870.63,74.99 870.63,76.26 869.36,76.26 869.36,77.53 868.09,77.53 868.09,78.8 865.55,78.8 865.55,80.07 864.27,80.07 864.27,81.34 863,81.34 863,82.61 861.73,82.61 861.73,83.89 859.19,83.89 859.19,85.16 857.92,85.16 857.92,86.43 856.65,86.43 856.65,87.7 855.38,87.7 855.38,88.97 854.11,88.97 854.11,90.24 852.84,90.24 852.84,91.51 850.29,91.51 850.29,92.78 849.02,92.78 849.02,94.05 847.75,94.05 847.75,95.32 846.48,95.32 846.48,96.6 845.21,96.6 845.21,97.87 843.94,97.87 843.94,99.14 842.67,99.14 842.67,100.41 841.4,100.41 841.4,101.68 838.85,101.68 838.85,102.95 837.58,102.95 837.58,104.22 836.31,104.22 836.31,105.49 835.04,105.49 835.04,106.76 833.77,106.76 833.77,108.03 832.5,108.03 832.5,109.31 831.23,109.31 831.23,110.58 829.96,110.58 829.96,111.85 828.69,111.85 828.69,113.12 827.42,113.12 827.42,114.39 826.14,114.39 826.14,115.66 824.87,115.66 824.87,116.93 823.6,116.93 823.6,118.2 822.33,118.2 822.33,119.47 821.06,119.47 821.06,120.74 819.79,120.74 819.79,122.02 818.52,122.02 818.52,123.29 817.25,123.29 817.25,124.56 815.98,124.56 815.98,125.83 814.71,125.83 814.71,127.1 813.43,127.1 813.43,128.37 812.16,128.37 812.16,129.64 810.89,129.64 810.89,130.91 809.62,130.91 809.62,132.18 808.35,132.18 808.35,133.45 807.08,133.45 807.08,134.72 805.81,134.72 805.81,136 804.54,136 804.54,137.27 803.27,137.27 803.27,138.54 802,138.54 802,139.81 800.72,139.81 800.72,141.08 799.45,141.08 799.45,142.35 798.18,142.35 798.18,143.62 796.91,143.62 796.91,144.89 795.64,144.89 795.64,146.16 794.37,146.16 794.37,147.43 793.1,147.43 793.1,148.71 791.83,148.71 791.83,149.98 790.56,149.98 790.56,151.25 789.29,151.25 789.29,152.52 788.01,152.52 788.01,153.79 786.74,153.79 786.74,155.06 785.47,155.06 785.47,156.33 784.2,156.33 784.2,157.6 782.93,157.6 782.93,158.87 781.66,158.87 781.66,160.14 780.39,160.14 780.39,161.42 779.12,161.42 779.12,163.96 777.85,163.96 777.85,165.23 776.58,165.23 776.58,166.5 775.3,166.5 775.3,167.77 774.03,167.77 774.03,169.04 772.76,169.04 772.76,170.31 771.49,170.31 771.49,171.58 770.22,171.58 770.22,172.85 768.95,172.85 768.95,174.13 767.68,174.13 767.68,175.4 766.41,175.4 766.41,176.67 765.14,176.67 765.14,177.94 763.87,177.94 763.87,179.21 762.59,179.21 762.59,181.75 761.32,181.75 761.32,183.02 760.05,183.02 760.05,184.29 758.78,184.29 758.78,185.56 757.51,185.56 757.51,186.84 756.24,186.84 756.24,188.11 754.97,188.11 754.97,189.38 753.7,189.38 753.7,190.65 752.43,190.65 752.43,191.92 751.16,191.92 751.16,193.19 749.89,193.19 749.89,194.46 748.61,194.46 748.61,197 747.34,197 747.34,198.27 746.07,198.27 746.07,199.55 744.8,199.55 744.8,200.82 743.53,200.82 743.53,202.09 742.26,202.09 742.26,203.36 740.99,203.36 740.99,204.63 739.72,204.63 739.72,205.9 738.45,205.9 738.45,208.44 737.18,208.44 737.18,209.71 735.9,209.71 735.9,210.98 734.63,210.98 734.63,213.53 733.36,213.53 733.36,216.07 732.09,216.07 732.09,227.51 733.36,227.51 733.36,230.05 734.63,230.05 734.63,232.59 735.9,232.59 735.9,235.13 737.18,235.13 737.18,237.68 738.45,237.68 738.45,238.95 739.72,238.95 739.72,241.49 740.99,241.49 740.99,242.76 742.26,242.76 742.26,244.03 743.53,244.03 743.53,246.57 744.8,246.57 744.8,247.84 746.07,247.84 746.07,249.11 747.34,249.11 747.34,251.66 748.61,251.66 748.61,252.93 749.89,252.93 749.89,254.2 751.16,254.2 751.16,255.47 752.43,255.47 752.43,258.01 753.7,258.01 753.7,259.28 754.97,259.28 754.97,260.55 756.24,260.55 756.24,261.82 757.51,261.82 757.51,263.1 758.78,263.1 758.78,264.37 760.05,264.37 760.05,266.91 761.32,266.91 761.32,268.18 762.59,268.18 762.59,269.45 763.87,269.45 763.87,270.72 765.14,270.72 765.14,271.99 766.41,271.99 766.41,273.26 767.68,273.26 767.68,275.81 768.95,275.81 768.95,277.08 770.22,277.08 770.22,278.35 771.49,278.35 771.49,279.62 772.76,279.62 772.76,280.89 774.03,280.89 774.03,282.16 775.3,282.16 775.3,284.7 776.58,284.7 776.58,285.97 777.85,285.97 777.85,287.24 779.12,287.24 779.12,288.52 780.39,288.52 780.39,289.79 781.66,289.79 781.66,291.06 782.93,291.06 782.93,292.33 784.2,292.33 784.2,293.6 785.47,293.6 785.47,294.87 798.18,294.87 798.18,293.6 800.72,293.6 800.72,292.33 802,292.33 802,291.06 803.27,291.06 803.27,289.79 804.54,289.79 804.54,288.52 805.81,288.52 805.81,287.24 807.08,287.24 807.08,285.97 808.35,285.97 808.35,284.7 809.62,284.7 809.62,283.43 810.89,283.43 810.89,282.16 812.16,282.16 812.16,280.89 813.43,280.89 813.43,279.62 814.71,279.62 814.71,278.35 815.98,278.35 815.98,277.08 817.25,277.08 817.25,275.81 818.52,275.81 818.52,274.53 819.79,274.53 819.79,273.26 821.06,273.26 821.06,270.72 822.33,270.72 822.33,269.45 823.6,269.45 823.6,268.18 824.87,268.18 824.87,266.91 826.14,266.91 826.14,265.64 827.42,265.64 827.42,264.37 828.69,264.37 828.69,263.1 829.96,263.1 829.96,261.82 831.23,261.82 831.23,259.28 832.5,259.28 832.5,258.01 833.77,258.01 833.77,256.74 835.04,256.74 835.04,255.47 836.31,255.47 836.31,254.2 837.58,254.2 837.58,252.93 838.85,252.93 838.85,251.66 840.13,251.66 840.13,250.39 841.4,250.39 841.4,249.11 842.67,249.11 842.67,246.57 843.94,246.57 843.94,245.3 845.21,245.3 845.21,244.03 846.48,244.03 846.48,242.76 847.75,242.76 847.75,241.49 849.02,241.49 849.02,240.22 850.29,240.22 850.29,238.95 851.56,238.95 851.56,237.68 852.84,237.68 852.84,236.4 854.11,236.4 854.11,235.13 855.38,235.13 855.38,233.86 856.65,233.86 856.65,231.32 857.92,231.32 857.92,230.05 859.19,230.05 859.19,228.78 860.46,228.78 860.46,227.51 861.73,227.51 861.73,226.24 863,226.24 863,224.97 864.27,224.97 864.27,223.69 865.55,223.69 865.55,222.42 866.82,222.42 866.82,221.15 868.09,221.15 868.09,219.88 869.36,219.88 869.36,218.61 870.63,218.61 870.63,217.34 871.9,217.34 871.9,216.07 873.17,216.07 873.17,214.8 874.44,214.8 874.44,213.53 875.71,213.53 875.71,212.26 876.98,212.26 876.98,209.71 878.25,209.71 878.25,208.44 879.53,208.44 879.53,207.17 880.8,207.17 880.8,205.9 882.07,205.9 882.07,204.63 883.34,204.63 883.34,203.36 884.61,203.36 884.61,202.09 885.88,202.09 885.88,200.82 887.15,200.82 887.15,199.55 888.42,199.55 888.42,198.27 889.69,198.27 889.69,197 890.96,197 890.96,195.73 892.24,195.73 892.24,194.46 893.51,194.46 893.51,193.19 894.78,193.19 894.78,191.92 896.05,191.92 896.05,190.65 897.32,190.65 897.32,189.38 899.86,189.38 899.86,188.11 901.13,188.11 901.13,186.84 902.4,186.84 902.4,185.56 903.67,185.56 903.67,184.29 904.95,184.29 904.95,183.02 906.22,183.02 906.22,181.75 907.49,181.75 907.49,180.48 908.76,180.48 908.76,179.21 910.03,179.21 910.03,177.94 911.3,177.94 911.3,176.67 912.57,176.67 912.57,175.4 913.84,175.4 913.84,174.13 916.38,174.13 916.38,172.85 917.66,172.85 917.66,171.58 918.93,171.58 918.93,170.31 920.2,170.31 920.2,169.04 921.47,169.04 921.47,167.77 922.74,167.77 922.74,166.5 924.01,166.5 924.01,165.23 926.55,165.23 926.55,163.96 927.82,163.96 927.82,162.69 929.09,162.69 929.09,161.42 930.37,161.42 930.37,160.14 932.91,160.14 932.91,158.87 934.18,158.87 934.18,157.6 935.45,157.6 935.45,156.33 936.72,156.33 936.72,155.06 939.26,155.06 939.26,153.79 940.53,153.79 940.53,152.52 941.8,152.52 941.8,151.25 944.35,151.25 944.35,149.98 945.62,149.98 945.62,148.71 948.16,148.71 948.16,147.43 949.43,147.43 949.43,146.16 951.97,146.16 951.97,144.89 953.24,144.89 953.24,143.62 955.79,143.62 955.79,142.35 957.06,142.35 957.06,141.08 959.6,141.08 959.6,139.81 960.87,139.81 960.87,138.54 963.41,138.54 963.41,137.27 965.95,137.27 965.95,136 968.5,136 968.5,134.72 971.04,134.72 971.04,133.45 973.58,133.45 973.58,132.18 974.85,132.18 974.85,130.91 977.39,130.91 977.39,129.64 979.93,129.64 979.93,128.37 982.48,128.37 982.48,127.1 986.29,127.1 986.29,125.83 988.83,125.83 988.83,124.56 991.37,124.56 991.37,123.29 995.19,123.29 995.19,122.02 997.73,122.02 997.73,120.74 1001.54,120.74 1001.54,119.47 1005.35,119.47 1005.35,118.2 1009.17,118.2 1009.17,116.93 1012.98,116.93 1012.98,115.66 1018.06,115.66 1018.06,114.39 1023.15,114.39 1023.15,113.12 1028.23,113.12 1028.23,111.85 1034.59,111.85 1034.59,110.58 1040.94,110.58 1040.94,109.31 1049.84,109.31 1049.84,108.03 1057.47,108.03 1057.47,106.76 1068.9,106.76 1068.9,105.49 1082.88,105.49 1082.88,104.22 1105.76,104.22 1105.76,102.95 1272.26,102.95 1272.26,302.5 1270.99,302.5 1270.99,329.19 1269.72,329.19 1269.72,344.44 1268.45,344.44 1268.45,354.61 1267.18,354.61 1267.18,362.23 1265.91,362.23 1265.91,368.59 1264.64,368.59 1264.64,374.94 1263.37,374.94 1263.37,378.76 1262.09,378.76 1262.09,382.57 1260.82,382.57 1260.82,386.38 1259.55,386.38 1259.55,388.92 1258.28,388.92 1258.28,392.74 1257.01,392.74 1257.01,395.28 1255.74,395.28 1255.74,397.82 1254.47,397.82 1254.47,400.36 1253.2,400.36 1253.2,402.9 1251.93,402.9 1251.93,405.45 1250.66,405.45 1250.66,407.99 1249.38,407.99 1249.38,410.53 1248.11,410.53 1248.11,413.07 1246.84,413.07 1246.84,414.34 1245.57,414.34 1245.57,416.89 1244.3,416.89 1244.3,419.43 1243.03,419.43 1243.03,420.7 1241.76,420.7 1241.76,423.24 1240.49,423.24 1240.49,424.51 1239.22,424.51 1239.22,425.78 1237.95,425.78 1237.95,428.32 1236.67,428.32 1236.67,429.6 1235.4,429.6 1235.4,432.14 1234.13,432.14 1234.13,433.41 1232.86,433.41 1232.86,434.68 1231.59,434.68 1231.59,435.95 1230.32,435.95 1230.32,438.49 1229.05,438.49 1229.05,439.76 1227.78,439.76 1227.78,441.03 1226.51,441.03 1226.51,442.3 1225.24,442.3 1225.24,443.58 1223.96,443.58 1223.96,446.12 1222.69,446.12 1222.69,447.39 1221.42,447.39 1221.42,448.66 1220.15,448.66 1220.15,449.93 1218.88,449.93 1218.88,451.2 1217.61,451.2 1217.61,452.47 1216.34,452.47 1216.34,453.74 1215.07,453.74 1215.07,455.01 1213.8,455.01 1213.8,456.29 1212.53,456.29 1212.53,457.56 1211.25,457.56 1211.25,458.83 1209.98,458.83 1209.98,460.1 1207.44,460.1 1207.44,461.37 1206.17,461.37 1206.17,462.64 1204.9,462.64 1204.9,463.91 1203.63,463.91 1203.63,465.18 1202.36,465.18 1202.36,466.45 1201.09,466.45 1201.09,467.72 1198.54,467.72 1198.54,469 1197.27,469 1197.27,470.27 1196,470.27 1196,471.54 1193.46,471.54 1193.46,472.81 1192.19,472.81 1192.19,474.08 1190.92,474.08 1190.92,475.35 1188.38,475.35 1188.38,476.62 1187.11,476.62 1187.11,477.89 1184.56,477.89 1184.56,479.16 1183.29,479.16 1183.29,480.43 1180.75,480.43 1180.75,481.71 1179.48,481.71 1179.48,482.98 1176.94,482.98 1176.94,484.25 1174.4,484.25 1174.4,485.52 1173.13,485.52 1173.13,486.79 1170.58,486.79 1170.58,488.06 1168.04,488.06 1168.04,489.33 1165.5,489.33 1165.5,490.6 1162.96,490.6 1162.96,491.87 1160.42,491.87 1160.42,493.14 1157.87,493.14 1157.87,494.42 1155.33,494.42 1155.33,495.69 1152.79,495.69 1152.79,496.96 1150.25,496.96 1150.25,498.23 1146.43,498.23 1146.43,499.5 1143.89,499.5 1143.89,500.77 1140.08,500.77 1140.08,502.04 1136.27,502.04 1136.27,503.31 1133.72,503.31 1133.72,504.58 1128.64,504.58 1128.64,505.85 1124.83,505.85 1124.83,507.13 1121.01,507.13 1121.01,508.4 1115.93,508.4 1115.93,509.67 1109.58,509.67 1109.58,510.94 1103.22,510.94 1103.22,512.21 1095.59,512.21 1095.59,513.48 1085.43,513.48 1085.43,514.75 1062.55,514.75 1062.55,516.02 1043.48,516.02 1043.48,517.29 1029.5,517.29 1029.5,518.56 1024.42,518.56 1024.42,519.84 1023.15,519.84 1023.15,521.11 1021.88,521.11 1021.88,522.38 1020.61,522.38 1020.61,523.65 1019.34,523.65 1019.34,524.92 1018.06,524.92 1018.06,526.19 1016.79,526.19 1016.79,528.73 1015.52,528.73 1015.52,530 1014.25,530 1014.25,531.27 1012.98,531.27 1012.98,532.55 1011.71,532.55 1011.71,535.09 1010.44,535.09 1010.44,536.36 1009.17,536.36 1009.17,538.9 1007.9,538.9 1007.9,540.17 1006.63,540.17 1006.63,541.44 1005.35,541.44 1005.35,543.98 1004.08,543.98 1004.08,545.26 1002.81,545.26 1002.81,547.8 1001.54,547.8 1001.54,549.07 1000.27,549.07 1000.27,550.34 999,550.34 999,552.88 997.73,552.88 997.73,554.15 996.46,554.15 996.46,556.69 995.19,556.69 995.19,557.97 993.92,557.97 993.92,559.24 992.64,559.24 992.64,561.78 991.37,561.78 991.37,563.05 990.1,563.05 990.1,564.32 988.83,564.32 988.83,566.86 987.56,566.86 987.56,568.13 986.29,568.13 986.29,570.68 985.02,570.68 985.02,571.95 983.75,571.95 983.75,573.22 982.48,573.22 982.48,575.76 981.21,575.76 981.21,577.03 979.93,577.03 979.93,578.3 978.66,578.3 978.66,580.84 977.39,580.84 977.39,582.11 976.12,582.11 976.12,584.66 974.85,584.66 974.85,585.93 973.58,585.93 973.58,588.47 972.31,588.47 972.31,591.01 971.04,591.01 971.04,597.37 972.31,597.37 972.31,598.64 973.58,598.64 973.58,599.91 974.85,599.91 974.85,601.18 976.12,601.18 976.12,602.45 979.93,602.45 979.93,603.72 982.48,603.72 982.48,604.99 986.29,604.99 986.29,606.26 991.37,606.26 991.37,607.53 996.46,607.53 996.46,608.81 1002.81,608.81 1002.81,610.08 1007.9,610.08 1007.9,611.35 1015.52,611.35 1015.52,612.62 1021.88,612.62 1021.88,613.89 1030.77,613.89 1030.77,615.16 1040.94,615.16 1040.94,616.43 1056.19,616.43 1056.19,617.7 1086.7,617.7 1086.7,616.43 1103.22,616.43 1103.22,615.16 1113.39,615.16 1113.39,613.89 1122.29,613.89 1122.29,612.62 1128.64,612.62 1128.64,611.35 1135,611.35 1135,610.08 1140.08,610.08 1140.08,608.81 1145.16,608.81 1145.16,607.53 1150.25,607.53 1150.25,606.26 1155.33,606.26 1155.33,604.99 1159.14,604.99 1159.14,603.72 1162.96,603.72 1162.96,602.45 1166.77,602.45 1166.77,601.18 1169.31,601.18 1169.31,599.91 1173.13,599.91 1173.13,598.64 1176.94,598.64 1176.94,597.37 1180.75,597.37 1180.75,596.1 1183.29,596.1 1183.29,594.82 1187.11,594.82 1187.11,593.55 1189.65,593.55 1189.65,592.28 1192.19,592.28 1192.19,591.01 1194.73,591.01 1194.73,589.74 1198.54,589.74 1198.54,588.47 1201.09,588.47 1201.09,587.2 1203.63,587.2 1203.63,585.93 1206.17,585.93 1206.17,584.66 1208.71,584.66 1208.71,583.39 1211.25,583.39 1211.25,582.11 1213.8,582.11 1213.8,580.84 1215.07,580.84 1215.07,579.57 1217.61,579.57 1217.61,578.3 1220.15,578.3 1220.15,577.03 1222.69,577.03 1222.69,575.76 1225.24,575.76 1225.24,574.49 1226.51,574.49 1226.51,573.22 1229.05,573.22 1229.05,571.95 1230.32,571.95 1230.32,570.68 1232.86,570.68 1232.86,569.4 1235.4,569.4 1235.4,568.13 1236.67,568.13 1236.67,566.86 1239.22,566.86 1239.22,565.59 1240.49,565.59 1240.49,564.32 1243.03,564.32 1243.03,563.05 1244.3,563.05 1244.3,561.78 1246.84,561.78 1246.84,560.51 1248.11,560.51 1248.11,559.24 1249.38,559.24 1249.38,557.97 1251.93,557.97 1251.93,556.69 1253.2,556.69 1253.2,555.42 1254.47,555.42 1254.47,554.15 1255.74,554.15 1255.74,552.88 1258.28,552.88 1258.28,551.61 1259.55,551.61 1259.55,550.34 1260.82,550.34 1260.82,549.07 1263.37,549.07 1263.37,547.8 1264.64,547.8 1264.64,546.53 1265.91,546.53 1265.91,545.26 1267.18,545.26 1267.18,543.98 1268.45,543.98 1268.45,542.71 1269.72,542.71 1269.72,541.44 1272.26,541.44 1272.26,540.17 1273.53,540.17 1273.53,538.9 1274.8,538.9 1274.8,537.63 1276.08,537.63 1276.08,536.36 1277.35,536.36 1277.35,535.09 1278.62,535.09 1278.62,533.82 1279.89,533.82 1279.89,532.55 1281.16,532.55 1281.16,531.27 1282.43,531.27 1282.43,530 1283.7,530 1283.7,528.73 1284.97,528.73 1284.97,527.46 1286.24,527.46 1286.24,526.19 1287.51,526.19 1287.51,524.92 1288.79,524.92 1288.79,523.65 1290.06,523.65 1290.06,522.38 1291.33,522.38 1291.33,521.11 1292.6,521.11 1292.6,519.84 1293.87,519.84 1293.87,518.56 1295.14,518.56 1295.14,517.29 1296.41,517.29 1296.41,516.02 1297.68,516.02 1297.68,514.75 1298.95,514.75 1298.95,513.48 1300.22,513.48 1300.22,512.21 1301.5,512.21 1301.5,509.67 1302.77,509.67 1302.77,508.4 1304.04,508.4 1304.04,507.13 1305.31,507.13 1305.31,505.85 1306.58,505.85 1306.58,503.31 1307.85,503.31 1307.85,502.04 1309.12,502.04 1309.12,500.77 1310.39,500.77 1310.39,499.5 1311.66,499.5 1311.66,496.96 1312.93,496.96 1312.93,495.69 1314.21,495.69 1314.21,494.42 1315.48,494.42 1315.48,493.14 1316.75,493.14 1316.75,490.6 1318.02,490.6 1318.02,489.33 1319.29,489.33 1319.29,486.79 1320.56,486.79 1320.56,485.52 1321.83,485.52 1321.83,482.98 1323.1,482.98 1323.1,481.71 1324.37,481.71 1324.37,479.16 1325.64,479.16 1325.64,477.89 1326.92,477.89 1326.92,476.62 1328.19,476.62 1328.19,474.08 1329.46,474.08 1329.46,472.81 1330.73,472.81 1330.73,470.27 1332,470.27 1332,467.72 1333.27,467.72 1333.27,466.45 1334.54,466.45 1334.54,463.91 1335.81,463.91 1335.81,461.37 1337.08,461.37 1337.08,458.83 1338.35,458.83 1338.35,457.56 1339.63,457.56 1339.63,455.01 1340.9,455.01 1340.9,452.47 1342.17,452.47 1342.17,449.93 1343.44,449.93 1343.44,448.66 1344.71,448.66 1344.71,446.12 1345.98,446.12 1345.98,443.58 1347.25,443.58 1347.25,441.03 1348.52,441.03 1348.52,437.22 1349.79,437.22 1349.79,434.68 1351.06,434.68 1351.06,432.14 1352.34,432.14 1352.34,428.32 1353.61,428.32 1353.61,425.78 1354.88,425.78 1354.88,421.97 1356.15,421.97 1356.15,418.16 1357.42,418.16 1357.42,414.34 1358.69,414.34 1358.69,410.53 1359.96,410.53 1359.96,406.72 1361.23,406.72 1361.23,402.9 1362.5,402.9 1362.5,399.09 1363.77,399.09 1363.77,395.28 1365.05,395.28 1365.05,391.47 1366.32,391.47 1366.32,386.38 1367.59,386.38 1367.59,380.03 1368.86,380.03 1368.86,372.4 1370.13,372.4 1370.13,359.69 1371.4,359.69 1371.4,330.46 1372.67,330.46 1372.67,240.22 1373.94,240.22 1373.94,68.63 1375.21,68.63 1375.21,0 1133.72,0 "/>
   <polygon class="fil0" points="-0,57.19 1.27,57.19 1.27,231.32 2.54,231.32 2.54,326.64 3.81,326.64 3.81,358.42 5.08,358.42 5.08,372.4 6.35,372.4 6.35,380.03 7.63,380.03 7.63,386.38 8.9,386.38 8.9,390.19 10.17,390.19 10.17,395.28 11.44,395.28 11.44,399.09 12.71,399.09 12.71,402.9 13.98,402.9 13.98,406.72 15.25,406.72 15.25,410.53 16.52,410.53 16.52,414.34 17.79,414.34 17.79,418.16 19.06,418.16 19.06,421.97 20.34,421.97 20.34,424.51 21.61,424.51 21.61,428.32 22.88,428.32 22.88,430.87 24.15,430.87 24.15,434.68 25.42,434.68 25.42,437.22 26.69,437.22 26.69,439.76 27.96,439.76 27.96,442.3 29.23,442.3 29.23,444.85 30.5,444.85 30.5,447.39 31.77,447.39 31.77,449.93 33.05,449.93 33.05,452.47 34.32,452.47 34.32,455.01 35.59,455.01 35.59,456.29 36.86,456.29 36.86,458.83 38.13,458.83 38.13,461.37 39.4,461.37 39.4,463.91 40.67,463.91 40.67,465.18 41.94,465.18 41.94,467.72 43.21,467.72 43.21,470.27 44.48,470.27 44.48,472.81 45.76,472.81 45.76,474.08 47.03,474.08 47.03,475.35 48.3,475.35 48.3,477.89 49.57,477.89 49.57,479.16 50.84,479.16 50.84,481.71 52.11,481.71 52.11,482.98 53.38,482.98 53.38,485.52 54.65,485.52 54.65,486.79 55.92,486.79 55.92,489.33 57.19,489.33 57.19,490.6 58.47,490.6 58.47,493.14 59.74,493.14 59.74,494.42 61.01,494.42 61.01,495.69 62.28,495.69 62.28,496.96 63.55,496.96 63.55,498.23 64.82,498.23 64.82,500.77 66.09,500.77 66.09,502.04 67.36,502.04 67.36,503.31 68.63,503.31 68.63,504.58 69.9,504.58 69.9,507.13 71.18,507.13 71.18,508.4 72.45,508.4 72.45,509.67 73.72,509.67 73.72,510.94 74.99,510.94 74.99,513.48 76.26,513.48 76.26,514.75 77.53,514.75 77.53,516.02 78.8,516.02 78.8,517.29 80.07,517.29 80.07,518.56 81.34,518.56 81.34,519.84 82.61,519.84 82.61,521.11 83.89,521.11 83.89,522.38 85.16,522.38 85.16,523.65 86.43,523.65 86.43,524.92 87.7,524.92 87.7,526.19 88.97,526.19 88.97,527.46 90.24,527.46 90.24,528.73 91.51,528.73 91.51,530 92.78,530 92.78,531.27 94.05,531.27 94.05,532.55 95.32,532.55 95.32,533.82 96.6,533.82 96.6,535.09 97.87,535.09 97.87,536.36 99.14,536.36 99.14,537.63 100.41,537.63 100.41,538.9 102.95,538.9 102.95,540.17 104.22,540.17 104.22,541.44 105.49,541.44 105.49,542.71 106.76,542.71 106.76,543.98 108.03,543.98 108.03,545.26 109.31,545.26 109.31,546.53 110.58,546.53 110.58,547.8 111.85,547.8 111.85,549.07 114.39,549.07 114.39,550.34 115.66,550.34 115.66,551.61 116.93,551.61 116.93,552.88 119.47,552.88 119.47,554.15 120.74,554.15 120.74,555.42 122.02,555.42 122.02,556.69 124.56,556.69 124.56,557.97 125.83,557.97 125.83,559.24 127.1,559.24 127.1,560.51 129.64,560.51 129.64,561.78 130.91,561.78 130.91,563.05 132.18,563.05 132.18,564.32 134.72,564.32 134.72,565.59 137.27,565.59 137.27,566.86 138.54,566.86 138.54,568.13 141.08,568.13 141.08,569.4 142.35,569.4 142.35,570.68 144.89,570.68 144.89,571.95 146.16,571.95 146.16,573.22 148.71,573.22 148.71,574.49 149.98,574.49 149.98,575.76 152.52,575.76 152.52,577.03 155.06,577.03 155.06,578.3 157.6,578.3 157.6,579.57 160.14,579.57 160.14,580.84 161.42,580.84 161.42,582.11 163.96,582.11 163.96,583.39 166.5,583.39 166.5,584.66 169.04,584.66 169.04,585.93 171.58,585.93 171.58,587.2 174.13,587.2 174.13,588.47 176.67,588.47 176.67,589.74 179.21,589.74 179.21,591.01 183.02,591.01 183.02,592.28 185.56,592.28 185.56,593.55 188.11,593.55 188.11,594.82 191.92,594.82 191.92,596.1 194.46,596.1 194.46,597.37 197,597.37 197,598.64 200.82,598.64 200.82,599.91 204.63,599.91 204.63,601.18 208.44,601.18 208.44,602.45 212.26,602.45 212.26,603.72 216.07,603.72 216.07,604.99 219.88,604.99 219.88,606.26 224.97,606.26 224.97,607.53 228.78,607.53 228.78,608.81 235.13,608.81 235.13,610.08 240.22,610.08 240.22,611.35 246.57,611.35 246.57,612.62 252.93,612.62 252.93,613.89 261.82,613.89 261.82,615.16 271.99,615.16 271.99,616.43 287.24,616.43 287.24,617.7 317.75,617.7 317.75,616.43 334.27,616.43 334.27,615.16 344.44,615.16 344.44,613.89 353.34,613.89 353.34,612.62 359.69,612.62 359.69,611.35 366.05,611.35 366.05,610.08 372.4,610.08 372.4,608.81 377.48,608.81 377.48,607.53 383.84,607.53 383.84,606.26 387.65,606.26 387.65,604.99 392.74,604.99 392.74,603.72 395.28,603.72 395.28,602.45 399.09,602.45 399.09,601.18 400.36,601.18 400.36,599.91 401.63,599.91 401.63,598.64 402.9,598.64 402.9,597.37 404.18,597.37 404.18,591.01 402.9,591.01 402.9,588.47 401.63,588.47 401.63,585.93 400.36,585.93 400.36,584.66 399.09,584.66 399.09,582.11 397.82,582.11 397.82,580.84 396.55,580.84 396.55,578.3 395.28,578.3 395.28,577.03 394.01,577.03 394.01,574.49 392.74,574.49 392.74,573.22 391.47,573.22 391.47,571.95 390.19,571.95 390.19,569.4 388.92,569.4 388.92,568.13 387.65,568.13 387.65,566.86 386.38,566.86 386.38,564.32 385.11,564.32 385.11,563.05 383.84,563.05 383.84,561.78 382.57,561.78 382.57,559.24 381.3,559.24 381.3,557.97 380.03,557.97 380.03,556.69 378.76,556.69 378.76,554.15 377.48,554.15 377.48,552.88 376.21,552.88 376.21,550.34 374.94,550.34 374.94,549.07 373.67,549.07 373.67,547.8 372.4,547.8 372.4,545.26 371.13,545.26 371.13,543.98 369.86,543.98 369.86,541.44 368.59,541.44 368.59,540.17 367.32,540.17 367.32,538.9 366.05,538.9 366.05,536.36 364.77,536.36 364.77,535.09 363.5,535.09 363.5,532.55 362.23,532.55 362.23,531.27 360.96,531.27 360.96,530 359.69,530 359.69,528.73 358.42,528.73 358.42,526.19 357.15,526.19 357.15,524.92 355.88,524.92 355.88,523.65 354.61,523.65 354.61,522.38 353.34,522.38 353.34,521.11 352.06,521.11 352.06,519.84 350.79,519.84 350.79,518.56 346.98,518.56 346.98,517.29 333,517.29 333,516.02 313.94,516.02 313.94,514.75 289.79,514.75 289.79,513.48 279.62,513.48 279.62,512.21 271.99,512.21 271.99,510.94 265.64,510.94 265.64,509.67 260.55,509.67 260.55,508.4 254.2,508.4 254.2,507.13 250.38,507.13 250.38,505.85 246.57,505.85 246.57,504.58 241.49,504.58 241.49,503.31 238.95,503.31 238.95,502.04 235.13,502.04 235.13,500.77 231.32,500.77 231.32,499.5 227.51,499.5 227.51,498.23 224.97,498.23 224.97,496.96 222.42,496.96 222.42,495.69 219.88,495.69 219.88,494.42 217.34,494.42 217.34,493.14 213.53,493.14 213.53,491.87 212.26,491.87 212.26,490.6 209.71,490.6 209.71,489.33 207.17,489.33 207.17,488.06 204.63,488.06 204.63,486.79 202.09,486.79 202.09,485.52 199.55,485.52 199.55,484.25 198.27,484.25 198.27,482.98 195.73,482.98 195.73,481.71 194.46,481.71 194.46,480.43 191.92,480.43 191.92,479.16 189.38,479.16 189.38,477.89 188.11,477.89 188.11,476.62 186.84,476.62 186.84,475.35 184.29,475.35 184.29,474.08 183.02,474.08 183.02,472.81 181.75,472.81 181.75,471.54 179.21,471.54 179.21,470.27 177.94,470.27 177.94,469 176.67,469 176.67,467.72 174.13,467.72 174.13,466.45 172.85,466.45 172.85,465.18 171.58,465.18 171.58,463.91 170.31,463.91 170.31,462.64 169.04,462.64 169.04,461.37 167.77,461.37 167.77,460.1 166.5,460.1 166.5,458.83 163.96,458.83 163.96,457.56 162.69,457.56 162.69,456.29 161.42,456.29 161.42,455.01 160.14,455.01 160.14,453.74 158.87,453.74 158.87,452.47 157.6,452.47 157.6,451.2 156.33,451.2 156.33,449.93 155.06,449.93 155.06,448.66 153.79,448.66 153.79,447.39 152.52,447.39 152.52,444.85 151.25,444.85 151.25,443.58 149.98,443.58 149.98,442.3 148.71,442.3 148.71,441.03 147.43,441.03 147.43,439.76 146.16,439.76 146.16,438.49 144.89,438.49 144.89,435.95 143.62,435.95 143.62,434.68 142.35,434.68 142.35,433.41 141.08,433.41 141.08,432.14 139.81,432.14 139.81,429.6 138.54,429.6 138.54,428.32 137.27,428.32 137.27,425.78 136,425.78 136,424.51 134.72,424.51 134.72,423.24 133.45,423.24 133.45,420.7 132.18,420.7 132.18,419.43 130.91,419.43 130.91,416.89 129.64,416.89 129.64,414.34 128.37,414.34 128.37,413.07 127.1,413.07 127.1,410.53 125.83,410.53 125.83,407.99 124.56,407.99 124.56,405.45 123.29,405.45 123.29,402.9 122.02,402.9 122.02,400.36 120.74,400.36 120.74,397.82 119.47,397.82 119.47,395.28 118.2,395.28 118.2,392.74 116.93,392.74 116.93,388.92 115.66,388.92 115.66,386.38 114.39,386.38 114.39,382.57 113.12,382.57 113.12,378.76 111.85,378.76 111.85,374.94 110.58,374.94 110.58,368.59 109.31,368.59 109.31,362.23 108.03,362.23 108.03,354.61 106.76,354.61 106.76,343.17 105.49,343.17 105.49,327.92 104.22,327.92 104.22,299.95 102.95,299.95 102.95,102.95 269.45,102.95 269.45,104.22 291.06,104.22 291.06,105.49 306.31,105.49 306.31,106.76 317.75,106.76 317.75,108.03 325.37,108.03 325.37,109.31 333,109.31 333,110.58 340.63,110.58 340.63,111.85 345.71,111.85 345.71,113.12 350.79,113.12 350.79,114.39 357.15,114.39 357.15,115.66 360.96,115.66 360.96,116.93 364.77,116.93 364.77,118.2 368.59,118.2 368.59,119.47 372.4,119.47 372.4,120.74 377.48,120.74 377.48,122.02 380.03,122.02 380.03,123.29 382.57,123.29 382.57,124.56 386.38,124.56 386.38,125.83 388.92,125.83 388.92,127.1 392.74,127.1 392.74,128.37 395.28,128.37 395.28,129.64 397.82,129.64 397.82,130.91 400.36,130.91 400.36,132.18 402.9,132.18 402.9,133.45 404.18,133.45 404.18,134.72 406.72,134.72 406.72,136 409.26,136 409.26,137.27 411.8,137.27 411.8,138.54 414.34,138.54 414.34,139.81 415.61,139.81 415.61,141.08 418.16,141.08 418.16,142.35 420.7,142.35 420.7,143.62 421.97,143.62 421.97,144.89 424.51,144.89 424.51,146.16 425.78,146.16 425.78,147.43 428.32,147.43 428.32,148.71 429.6,148.71 429.6,149.98 430.87,149.98 430.87,151.25 433.41,151.25 433.41,152.52 434.68,152.52 434.68,153.79 435.95,153.79 435.95,155.06 438.49,155.06 438.49,156.33 439.76,156.33 439.76,157.6 441.03,157.6 441.03,158.87 443.58,158.87 443.58,160.14 444.85,160.14 444.85,161.42 446.12,161.42 446.12,162.69 447.39,162.69 447.39,163.96 448.66,163.96 448.66,165.23 451.2,165.23 451.2,166.5 452.47,166.5 452.47,167.77 453.74,167.77 453.74,169.04 455.01,169.04 455.01,170.31 456.29,170.31 456.29,171.58 458.83,171.58 458.83,172.85 460.1,172.85 460.1,174.13 461.37,174.13 461.37,175.4 462.64,175.4 462.64,176.67 463.91,176.67 463.91,177.94 465.18,177.94 465.18,179.21 466.45,179.21 466.45,180.48 467.72,180.48 467.72,181.75 469,181.75 469,183.02 470.27,183.02 470.27,184.29 471.54,184.29 471.54,185.56 474.08,185.56 474.08,186.84 475.35,186.84 475.35,188.11 476.62,188.11 476.62,189.38 477.89,189.38 477.89,190.65 479.16,190.65 479.16,191.92 480.43,191.92 480.43,193.19 481.71,193.19 481.71,194.46 482.98,194.46 482.98,195.73 484.25,195.73 484.25,197 485.52,197 485.52,198.27 486.79,198.27 486.79,199.55 488.06,199.55 488.06,200.82 489.33,200.82 489.33,202.09 490.6,202.09 490.6,203.36 491.87,203.36 491.87,204.63 493.14,204.63 493.14,205.9 494.42,205.9 494.42,207.17 495.69,207.17 495.69,208.44 496.96,208.44 496.96,209.71 498.23,209.71 498.23,210.98 499.5,210.98 499.5,212.26 500.77,212.26 500.77,213.53 502.04,213.53 502.04,216.07 503.31,216.07 503.31,217.34 504.58,217.34 504.58,218.61 505.85,218.61 505.85,219.88 507.13,219.88 507.13,221.15 508.4,221.15 508.4,222.42 509.67,222.42 509.67,223.69 510.94,223.69 510.94,224.97 512.21,224.97 512.21,226.24 513.48,226.24 513.48,227.51 514.75,227.51 514.75,228.78 516.02,228.78 516.02,230.05 517.29,230.05 517.29,231.32 518.56,231.32 518.56,232.59 519.84,232.59 519.84,233.86 521.11,233.86 521.11,236.4 522.38,236.4 522.38,237.68 523.65,237.68 523.65,238.95 524.92,238.95 524.92,240.22 526.19,240.22 526.19,241.49 527.46,241.49 527.46,242.76 528.73,242.76 528.73,244.03 530,244.03 530,245.3 531.27,245.3 531.27,246.57 532.55,246.57 532.55,247.84 533.82,247.84 533.82,250.39 535.09,250.39 535.09,251.66 536.36,251.66 536.36,252.93 537.63,252.93 537.63,254.2 538.9,254.2 538.9,255.47 540.17,255.47 540.17,256.74 541.44,256.74 541.44,258.01 542.71,258.01 542.71,259.28 543.98,259.28 543.98,260.55 545.26,260.55 545.26,263.1 546.53,263.1 546.53,264.37 547.8,264.37 547.8,265.64 549.07,265.64 549.07,266.91 550.34,266.91 550.34,268.18 551.61,268.18 551.61,269.45 552.88,269.45 552.88,270.72 554.15,270.72 554.15,271.99 555.42,271.99 555.42,273.26 556.69,273.26 556.69,275.81 557.97,275.81 557.97,277.08 559.24,277.08 559.24,278.35 560.51,278.35 560.51,279.62 561.78,279.62 561.78,280.89 563.05,280.89 563.05,282.16 564.32,282.16 564.32,283.43 565.59,283.43 565.59,284.7 566.86,284.7 566.86,285.97 568.13,285.97 568.13,287.24 569.4,287.24 569.4,288.52 570.67,288.52 570.67,289.79 571.95,289.79 571.95,291.06 573.22,291.06 573.22,292.33 575.76,292.33 575.76,293.6 577.03,293.6 577.03,294.87 589.74,294.87 589.74,293.6 591.01,293.6 591.01,292.33 593.55,292.33 593.55,291.06 594.82,291.06 594.82,289.79 596.09,289.79 596.09,287.24 597.37,287.24 597.37,285.97 598.64,285.97 598.64,284.7 599.91,284.7 599.91,282.16 601.18,282.16 601.18,280.89 602.45,280.89 602.45,279.62 603.72,279.62 603.72,278.35 604.99,278.35 604.99,277.08 606.26,277.08 606.26,275.81 607.53,275.81 607.53,274.53 608.8,274.53 608.8,271.99 610.08,271.99 610.08,270.72 611.35,270.72 611.35,269.45 612.62,269.45 612.62,268.18 613.89,268.18 613.89,266.91 615.16,266.91 615.16,265.64 616.43,265.64 616.43,263.1 617.7,263.1 617.7,261.82 618.97,261.82 618.97,260.55 620.24,260.55 620.24,259.28 621.51,259.28 621.51,258.01 622.79,258.01 622.79,255.47 624.06,255.47 624.06,254.2 625.33,254.2 625.33,252.93 626.6,252.93 626.6,251.66 627.87,251.66 627.87,249.11 629.14,249.11 629.14,247.84 630.41,247.84 630.41,246.57 631.68,246.57 631.68,245.3 632.95,245.3 632.95,242.76 634.22,242.76 634.22,241.49 635.5,241.49 635.5,238.95 636.77,238.95 636.77,237.68 638.04,237.68 638.04,235.13 639.31,235.13 639.31,232.59 640.58,232.59 640.58,230.05 641.85,230.05 641.85,227.51 643.12,227.51 643.12,216.07 641.85,216.07 641.85,213.53 640.58,213.53 640.58,210.98 639.31,210.98 639.31,209.71 638.04,209.71 638.04,208.44 636.77,208.44 636.77,205.9 635.5,205.9 635.5,204.63 634.22,204.63 634.22,203.36 632.95,203.36 632.95,202.09 631.68,202.09 631.68,200.82 630.41,200.82 630.41,199.55 629.14,199.55 629.14,198.27 627.87,198.27 627.87,195.73 626.6,195.73 626.6,194.46 625.33,194.46 625.33,193.19 624.06,193.19 624.06,191.92 622.79,191.92 622.79,190.65 621.51,190.65 621.51,189.38 620.24,189.38 620.24,188.11 618.97,188.11 618.97,186.84 617.7,186.84 617.7,185.56 616.43,185.56 616.43,184.29 615.16,184.29 615.16,181.75 613.89,181.75 613.89,180.48 612.62,180.48 612.62,179.21 611.35,179.21 611.35,177.94 610.08,177.94 610.08,176.67 608.8,176.67 608.8,175.4 607.53,175.4 607.53,174.13 606.26,174.13 606.26,172.85 604.99,172.85 604.99,171.58 603.72,171.58 603.72,170.31 602.45,170.31 602.45,169.04 601.18,169.04 601.18,167.77 599.91,167.77 599.91,166.5 598.64,166.5 598.64,163.96 597.37,163.96 597.37,162.69 596.09,162.69 596.09,161.42 594.82,161.42 594.82,160.14 593.55,160.14 593.55,158.87 592.28,158.87 592.28,157.6 591.01,157.6 591.01,156.33 589.74,156.33 589.74,155.06 588.47,155.06 588.47,153.79 587.2,153.79 587.2,152.52 585.93,152.52 585.93,151.25 584.66,151.25 584.66,149.98 583.38,149.98 583.38,148.71 582.11,148.71 582.11,147.43 580.84,147.43 580.84,146.16 579.57,146.16 579.57,144.89 578.3,144.89 578.3,143.62 577.03,143.62 577.03,142.35 575.76,142.35 575.76,141.08 574.49,141.08 574.49,139.81 573.22,139.81 573.22,138.54 571.95,138.54 571.95,137.27 570.67,137.27 570.67,136 569.4,136 569.4,134.72 568.13,134.72 568.13,133.45 566.86,133.45 566.86,132.18 565.59,132.18 565.59,130.91 564.32,130.91 564.32,129.64 563.05,129.64 563.05,128.37 561.78,128.37 561.78,127.1 560.51,127.1 560.51,125.83 559.24,125.83 559.24,124.56 557.97,124.56 557.97,123.29 556.69,123.29 556.69,122.02 555.42,122.02 555.42,120.74 554.15,120.74 554.15,119.47 552.88,119.47 552.88,118.2 551.61,118.2 551.61,116.93 550.34,116.93 550.34,115.66 549.07,115.66 549.07,114.39 547.8,114.39 547.8,113.12 546.53,113.12 546.53,111.85 545.26,111.85 545.26,110.58 543.98,110.58 543.98,109.31 542.71,109.31 542.71,108.03 541.44,108.03 541.44,106.76 540.17,106.76 540.17,105.49 538.9,105.49 538.9,104.22 537.63,104.22 537.63,102.95 536.36,102.95 536.36,101.68 533.82,101.68 533.82,100.41 532.55,100.41 532.55,99.14 531.27,99.14 531.27,97.87 530,97.87 530,96.6 528.73,96.6 528.73,95.32 527.46,95.32 527.46,94.05 526.19,94.05 526.19,92.78 524.92,92.78 524.92,91.51 522.38,91.51 522.38,90.24 521.11,90.24 521.11,88.97 519.84,88.97 519.84,87.7 518.56,87.7 518.56,86.43 517.29,86.43 517.29,85.16 516.02,85.16 516.02,83.89 513.48,83.89 513.48,82.61 512.21,82.61 512.21,81.34 510.94,81.34 510.94,80.07 509.67,80.07 509.67,78.8 507.13,78.8 507.13,77.53 505.85,77.53 505.85,76.26 504.58,76.26 504.58,74.99 503.31,74.99 503.31,73.72 500.77,73.72 500.77,72.45 499.5,72.45 499.5,71.18 498.23,71.18 498.23,69.9 495.69,69.9 495.69,68.63 494.42,68.63 494.42,67.36 493.14,67.36 493.14,66.09 490.6,66.09 490.6,64.82 489.33,64.82 489.33,63.55 486.79,63.55 486.79,62.28 485.52,62.28 485.52,61.01 482.98,61.01 482.98,59.74 481.71,59.74 481.71,58.47 479.16,58.47 479.16,57.19 477.89,57.19 477.89,55.92 475.35,55.92 475.35,54.65 474.08,54.65 474.08,53.38 471.54,53.38 471.54,52.11 470.27,52.11 470.27,50.84 467.72,50.84 467.72,49.57 465.18,49.57 465.18,48.3 463.91,48.3 463.91,47.03 461.37,47.03 461.37,45.76 458.83,45.76 458.83,44.48 456.29,44.48 456.29,43.21 453.74,43.21 453.74,41.94 451.2,41.94 451.2,40.67 448.66,40.67 448.66,39.4 447.39,39.4 447.39,38.13 444.85,38.13 444.85,36.86 441.03,36.86 441.03,35.59 438.49,35.59 438.49,34.32 435.95,34.32 435.95,33.05 433.41,33.05 433.41,31.77 429.6,31.77 429.6,30.5 427.05,30.5 427.05,29.23 423.24,29.23 423.24,27.96 420.7,27.96 420.7,26.69 416.89,26.69 416.89,25.42 413.07,25.42 413.07,24.15 410.53,24.15 410.53,22.88 406.72,22.88 406.72,21.61 401.63,21.61 401.63,20.34 397.82,20.34 397.82,19.06 394.01,19.06 394.01,17.79 388.92,17.79 388.92,16.52 383.84,16.52 383.84,15.25 377.48,15.25 377.48,13.98 372.4,13.98 372.4,12.71 366.05,12.71 366.05,11.44 359.69,11.44 359.69,10.17 352.06,10.17 352.06,8.9 343.17,8.9 343.17,7.63 334.27,7.63 334.27,6.35 324.1,6.35 324.1,5.08 311.39,5.08 311.39,3.81 294.87,3.81 294.87,2.54 274.53,2.54 274.53,1.27 241.49,1.27 241.49,0 -0,0 "/>
   <path class="fil0" d="M617.7 522.38l1.27 0 0 -3.81 1.27 0 0 -2.54 1.27 0 0 -1.27 1.27 0 0 -2.54 1.27 0 0 -1.27 1.27 0 0 -2.54 1.27 0 0 -1.27 1.27 0 0 -1.27 1.27 0 0 -2.54 1.27 0 0 -1.27 1.27 0 0 -2.54 1.27 0 0 -1.27 1.27 0 0 -2.54 1.27 0 0 -1.27 1.27 0 0 -2.54 1.27 0 0 -1.27 1.27 0 0 -2.54 1.27 0 0 -1.27 1.27 0 0 -2.54 1.27 0 0 -1.27 1.27 0 0 -2.54 1.27 0 0 -1.27 1.27 0 0 -2.54 1.27 0 0 -1.27 1.27 0 0 -2.54 1.27 0 0 -1.27 1.27 0 0 -2.54 1.27 0 0 -1.27 1.27 0 0 -2.54 1.27 0 0 -1.27 1.27 0 0 -2.54 1.27 0 0 -1.27 1.27 0 0 -2.54 1.27 0 0 -1.27 1.27 0 0 -2.54 1.27 0 0 -1.27 1.27 0 0 -2.54 1.27 0 0 -1.27 1.27 0 0 -2.54 1.27 0 0 -1.27 1.27 0 0 -2.54 1.27 0 0 -1.27 1.27 0 0 -2.54 1.27 0 0 -2.54 1.27 0 0 -1.27 1.27 0 0 -2.54 1.27 0 0 -1.27 1.27 0 0 -2.54 1.27 0 0 -1.27 1.27 0 0 -1.27 1.27 0 0 -2.54 1.27 0 0 -1.27 1.27 0 0 -1.27 5.08 0 0 1.27 1.27 0 0 1.27 1.27 0 0 1.27 1.27 0 0 2.54 1.27 0 0 1.27 1.27 0 0 2.54 1.27 0 0 1.27 1.27 0 0 2.54 1.27 0 0 1.27 1.27 0 0 2.54 1.27 0 0 1.27 1.27 0 0 2.54 1.27 0 0 1.27 1.27 0 0 2.54 1.27 0 0 1.27 1.27 0 0 2.54 1.27 0 0 1.27 1.27 0 0 2.54 1.27 0 0 1.27 1.27 0 0 2.54 1.27 0 0 2.54 1.27 0 0 1.27 1.27 0 0 2.54 1.27 0 0 1.27 1.27 0 0 2.54 1.27 0 0 1.27 1.27 0 0 2.54 1.27 0 0 1.27 1.27 0 0 2.54 1.27 0 0 1.27 1.27 0 0 2.54 1.27 0 0 1.27 1.27 0 0 2.54 1.27 0 0 1.27 1.27 0 0 2.54 1.27 0 0 1.27 1.27 0 0 2.54 1.27 0 0 1.27 1.27 0 0 2.54 1.27 0 0 1.27 1.27 0 0 2.54 1.27 0 0 1.27 1.27 0 0 2.54 1.27 0 0 1.27 1.27 0 0 1.27 1.27 0 0 2.54 1.27 0 0 1.27 1.27 0 0 2.54 1.27 0 0 1.27 1.27 0 0 1.27 1.27 0 0 2.54 1.27 0 0 2.54 1.27 0 0 3.81 1.27 0 0 5.08 -1.27 0 0 3.81 -1.27 0 0 2.54 -1.27 0 0 1.27 -1.27 0 0 2.54 -1.27 0 0 1.27 -1.27 0 0 2.54 -1.27 0 0 1.27 -1.27 0 0 1.27 -1.27 0 0 2.54 -1.27 0 0 1.27 -1.27 0 0 2.54 -1.27 0 0 1.27 -1.27 0 0 2.54 -1.27 0 0 1.27 -1.27 0 0 2.54 -1.27 0 0 1.27 -1.27 0 0 2.54 -1.27 0 0 1.27 -1.27 0 0 2.54 -1.27 0 0 1.27 -1.27 0 0 2.54 -1.27 0 0 1.27 -1.27 0 0 2.54 -1.27 0 0 1.27 -1.27 0 0 2.54 -1.27 0 0 1.27 -1.27 0 0 2.54 -1.27 0 0 1.27 -1.27 0 0 2.54 -1.27 0 0 1.27 -1.27 0 0 2.54 -1.27 0 0 1.27 -1.27 0 0 2.54 -1.27 0 0 1.27 -1.27 0 0 2.54 -1.27 0 0 1.27 -1.27 0 0 2.54 -1.27 0 0 1.27 -1.27 0 0 2.54 -1.27 0 0 1.27 -1.27 0 0 2.54 -1.27 0 0 2.54 -1.27 0 0 1.27 -1.27 0 0 2.54 -1.27 0 0 1.27 -1.27 0 0 2.54 -1.27 0 0 1.27 -1.27 0 0 2.54 -1.27 0 0 1.27 -1.27 0 0 2.54 -1.27 0 0 1.27 -1.27 0 0 1.27 -1.27 0 0 1.27 -5.08 0 0 -1.27 -1.27 0 0 -1.27 -1.27 0 0 -2.54 -1.27 0 0 -1.27 -1.27 0 0 -1.27 -1.27 0 0 -2.54 -1.27 0 0 -1.27 -1.27 0 0 -2.54 -1.27 0 0 -1.27 -1.27 0 0 -2.54 -1.27 0 0 -1.27 -1.27 0 0 -2.54 -1.27 0 0 -2.54 -1.27 0 0 -1.27 -1.27 0 0 -2.54 -1.27 0 0 -1.27 -1.27 0 0 -2.54 -1.27 0 0 -1.27 -1.27 0 0 -2.54 -1.27 0 0 -1.27 -1.27 0 0 -2.54 -1.27 0 0 -1.27 -1.27 0 0 -2.54 -1.27 0 0 -1.27 -1.27 0 0 -2.54 -1.27 0 0 -1.27 -1.27 0 0 -2.54 -1.27 0 0 -1.27 -1.27 0 0 -2.54 -1.27 0 0 -1.27 -1.27 0 0 -2.54 -1.27 0 0 -1.27 -1.27 0 0 -2.54 -1.27 0 0 -1.27 -1.27 0 0 -2.54 -1.27 0 0 -1.27 -1.27 0 0 -2.54 -1.27 0 0 -1.27 -1.27 0 0 -2.54 -1.27 0 0 -1.27 -1.27 0 0 -2.54 -1.27 0 0 -1.27 -1.27 0 0 -2.54 -1.27 0 0 -1.27 -1.27 0 0 -2.54 -1.27 0 0 -1.27 -1.27 0 0 -1.27 -1.27 0 0 -2.54 -1.27 0 0 -1.27 -1.27 0 0 -2.54 -1.27 0 0 -1.27 -1.27 0 0 -2.54 -1.27 0 0 -3.81 -1.27 0 0 -5.08zm66.09 -256.74l-1.27 0 0 1.27 -2.54 0 0 1.27 -1.27 0 0 1.27 -1.27 0 0 1.27 -1.27 0 0 2.54 -1.27 0 0 1.27 -1.27 0 0 1.27 -1.27 0 0 1.27 -1.27 0 0 2.54 -1.27 0 0 1.27 -1.27 0 0 2.54 -1.27 0 0 1.27 -1.27 0 0 2.54 -1.27 0 0 1.27 -1.27 0 0 2.54 -1.27 0 0 1.27 -1.27 0 0 2.54 -1.27 0 0 1.27 -1.27 0 0 2.54 -1.27 0 0 1.27 -1.27 0 0 2.54 -1.27 0 0 1.27 -1.27 0 0 2.54 -1.27 0 0 2.54 -1.27 0 0 1.27 -1.27 0 0 2.54 -1.27 0 0 1.27 -1.27 0 0 2.54 -1.27 0 0 1.27 -1.27 0 0 2.54 -1.27 0 0 1.27 -1.27 0 0 2.54 -1.27 0 0 2.54 -1.27 0 0 1.27 -1.27 0 0 2.54 -1.27 0 0 1.27 -1.27 0 0 2.54 -1.27 0 0 1.27 -1.27 0 0 2.54 -1.27 0 0 1.27 -1.27 0 0 2.54 -1.27 0 0 1.27 -1.27 0 0 2.54 -1.27 0 0 1.27 -1.27 0 0 2.54 -1.27 0 0 1.27 -1.27 0 0 2.54 -1.27 0 0 1.27 -1.27 0 0 2.54 -1.27 0 0 2.54 -1.27 0 0 1.27 -1.27 0 0 2.54 -1.27 0 0 1.27 -1.27 0 0 2.54 -1.27 0 0 1.27 -1.27 0 0 2.54 -1.27 0 0 1.27 -1.27 0 0 2.54 -1.27 0 0 1.27 -1.27 0 0 2.54 -1.27 0 0 1.27 -1.27 0 0 2.54 -1.27 0 0 1.27 -1.27 0 0 2.54 -1.27 0 0 1.27 -1.27 0 0 2.54 -1.27 0 0 2.54 -1.27 0 0 1.27 -1.27 0 0 2.54 -1.27 0 0 1.27 -1.27 0 0 2.54 -1.27 0 0 1.27 -1.27 0 0 2.54 -1.27 0 0 1.27 -1.27 0 0 2.54 -1.27 0 0 1.27 -1.27 0 0 2.54 -1.27 0 0 1.27 -1.27 0 0 2.54 -1.27 0 0 1.27 -1.27 0 0 2.54 -1.27 0 0 1.27 -1.27 0 0 2.54 -1.27 0 0 1.27 -1.27 0 0 2.54 -1.27 0 0 1.27 -1.27 0 0 2.54 -1.27 0 0 1.27 -1.27 0 0 2.54 -1.27 0 0 2.54 -1.27 0 0 1.27 -1.27 0 0 2.54 -1.27 0 0 1.27 -1.27 0 0 2.54 -1.27 0 0 1.27 -1.27 0 0 2.54 -1.27 0 0 1.27 -1.27 0 0 2.54 -1.27 0 0 1.27 -1.27 0 0 2.54 -1.27 0 0 1.27 -1.27 0 0 2.54 -1.27 0 0 1.27 -1.27 0 0 2.54 -1.27 0 0 1.27 -1.27 0 0 2.54 -1.27 0 0 1.27 -1.27 0 0 2.54 -1.27 0 0 1.27 -1.27 0 0 2.54 -1.27 0 0 1.27 -1.27 0 0 1.27 -1.27 0 0 2.54 -1.27 0 0 1.27 -1.27 0 0 2.54 -1.27 0 0 1.27 -1.27 0 0 1.27 -1.27 0 0 2.54 -1.27 0 0 1.27 -1.27 0 0 1.27 -1.27 0 0 2.54 -1.27 0 0 1.27 -1.27 0 0 2.54 -1.27 0 0 2.54 -1.27 0 0 1.27 -1.27 0 0 2.54 -1.27 0 0 2.54 -1.27 0 0 3.81 -1.27 0 0 2.54 -1.27 0 0 3.81 -1.27 0 0 15.25 1.27 0 0 3.81 1.27 0 0 2.54 1.27 0 0 2.54 1.27 0 0 2.54 1.27 0 0 2.54 1.27 0 0 2.54 1.27 0 0 2.54 1.27 0 0 1.27 1.27 0 0 2.54 1.27 0 0 1.27 1.27 0 0 2.54 1.27 0 0 1.27 1.27 0 0 2.54 1.27 0 0 1.27 1.27 0 0 1.27 1.27 0 0 2.54 1.27 0 0 1.27 1.27 0 0 1.27 1.27 0 0 2.54 1.27 0 0 1.27 1.27 0 0 2.54 1.27 0 0 1.27 1.27 0 0 2.54 1.27 0 0 1.27 1.27 0 0 2.54 1.27 0 0 1.27 1.27 0 0 2.54 1.27 0 0 1.27 1.27 0 0 2.54 1.27 0 0 1.27 1.27 0 0 2.54 1.27 0 0 1.27 1.27 0 0 2.54 1.27 0 0 1.27 1.27 0 0 2.54 1.27 0 0 1.27 1.27 0 0 2.54 1.27 0 0 1.27 1.27 0 0 2.54 1.27 0 0 1.27 1.27 0 0 2.54 1.27 0 0 1.27 1.27 0 0 2.54 1.27 0 0 1.27 1.27 0 0 2.54 1.27 0 0 1.27 1.27 0 0 2.54 1.27 0 0 2.54 1.27 0 0 1.27 1.27 0 0 2.54 1.27 0 0 1.27 1.27 0 0 2.54 1.27 0 0 1.27 1.27 0 0 2.54 1.27 0 0 1.27 1.27 0 0 2.54 1.27 0 0 1.27 1.27 0 0 2.54 1.27 0 0 1.27 1.27 0 0 2.54 1.27 0 0 1.27 1.27 0 0 2.54 1.27 0 0 1.27 1.27 0 0 2.54 1.27 0 0 1.27 1.27 0 0 2.54 1.27 0 0 2.54 1.27 0 0 1.27 1.27 0 0 2.54 1.27 0 0 1.27 1.27 0 0 2.54 1.27 0 0 1.27 1.27 0 0 2.54 1.27 0 0 1.27 1.27 0 0 2.54 1.27 0 0 1.27 1.27 0 0 2.54 1.27 0 0 1.27 1.27 0 0 2.54 1.27 0 0 1.27 1.27 0 0 2.54 1.27 0 0 1.27 1.27 0 0 2.54 1.27 0 0 1.27 1.27 0 0 2.54 1.27 0 0 2.54 1.27 0 0 1.27 1.27 0 0 2.54 1.27 0 0 1.27 1.27 0 0 2.54 1.27 0 0 1.27 1.27 0 0 2.54 1.27 0 0 1.27 1.27 0 0 2.54 1.27 0 0 1.27 1.27 0 0 2.54 1.27 0 0 1.27 1.27 0 0 2.54 1.27 0 0 1.27 1.27 0 0 2.54 1.27 0 0 2.54 1.27 0 0 1.27 1.27 0 0 2.54 1.27 0 0 1.27 1.27 0 0 2.54 1.27 0 0 1.27 1.27 0 0 2.54 1.27 0 0 1.27 1.27 0 0 2.54 1.27 0 0 2.54 1.27 0 0 1.27 1.27 0 0 2.54 1.27 0 0 1.27 1.27 0 0 2.54 1.27 0 0 1.27 1.27 0 0 2.54 1.27 0 0 1.27 1.27 0 0 2.54 1.27 0 0 1.27 1.27 0 0 2.54 1.27 0 0 1.27 1.27 0 0 1.27 1.27 0 0 2.54 1.27 0 0 1.27 1.27 0 0 1.27 1.27 0 0 2.54 1.27 0 0 1.27 1.27 0 0 1.27 1.27 0 0 1.27 2.54 0 0 1.27 1.27 0 0 1.27 7.63 0 0 -1.27 1.27 0 0 -1.27 2.54 0 0 -1.27 1.27 0 0 -1.27 1.27 0 0 -1.27 1.27 0 0 -2.54 1.27 0 0 -1.27 1.27 0 0 -1.27 1.27 0 0 -1.27 1.27 0 0 -2.54 1.27 0 0 -1.27 1.27 0 0 -2.54 1.27 0 0 -1.27 1.27 0 0 -2.54 1.27 0 0 -1.27 1.27 0 0 -2.54 1.27 0 0 -1.27 1.27 0 0 -2.54 1.27 0 0 -1.27 1.27 0 0 -2.54 1.27 0 0 -1.27 1.27 0 0 -2.54 1.27 0 0 -1.27 1.27 0 0 -2.54 1.27 0 0 -2.54 1.27 0 0 -1.27 1.27 0 0 -2.54 1.27 0 0 -1.27 1.27 0 0 -2.54 1.27 0 0 -1.27 1.27 0 0 -2.54 1.27 0 0 -1.27 1.27 0 0 -2.54 1.27 0 0 -1.27 1.27 0 0 -2.54 1.27 0 0 -2.54 1.27 0 0 -1.27 1.27 0 0 -2.54 1.27 0 0 -1.27 1.27 0 0 -2.54 1.27 0 0 -1.27 1.27 0 0 -2.54 1.27 0 0 -1.27 1.27 0 0 -2.54 1.27 0 0 -1.27 1.27 0 0 -2.54 1.27 0 0 -1.27 1.27 0 0 -2.54 1.27 0 0 -1.27 1.27 0 0 -2.54 1.27 0 0 -1.27 1.27 0 0 -2.54 1.27 0 0 -2.54 1.27 0 0 -1.27 1.27 0 0 -2.54 1.27 0 0 -1.27 1.27 0 0 -2.54 1.27 0 0 -1.27 1.27 0 0 -2.54 1.27 0 0 -1.27 1.27 0 0 -2.54 1.27 0 0 -1.27 1.27 0 0 -2.54 1.27 0 0 -1.27 1.27 0 0 -2.54 1.27 0 0 -1.27 1.27 0 0 -2.54 1.27 0 0 -1.27 1.27 0 0 -2.54 1.27 0 0 -1.27 1.27 0 0 -2.54 1.27 0 0 -2.54 1.27 0 0 -1.27 1.27 0 0 -2.54 1.27 0 0 -1.27 1.27 0 0 -2.54 1.27 0 0 -1.27 1.27 0 0 -2.54 1.27 0 0 -1.27 1.27 0 0 -2.54 1.27 0 0 -1.27 1.27 0 0 -2.54 1.27 0 0 -1.27 1.27 0 0 -2.54 1.27 0 0 -1.27 1.27 0 0 -2.54 1.27 0 0 -1.27 1.27 0 0 -2.54 1.27 0 0 -1.27 1.27 0 0 -2.54 1.27 0 0 -1.27 1.27 0 0 -2.54 1.27 0 0 -1.27 1.27 0 0 -2.54 1.27 0 0 -2.54 1.27 0 0 -1.27 1.27 0 0 -2.54 1.27 0 0 -1.27 1.27 0 0 -2.54 1.27 0 0 -1.27 1.27 0 0 -2.54 1.27 0 0 -1.27 1.27 0 0 -2.54 1.27 0 0 -1.27 1.27 0 0 -2.54 1.27 0 0 -1.27 1.27 0 0 -2.54 1.27 0 0 -1.27 1.27 0 0 -2.54 1.27 0 0 -1.27 1.27 0 0 -1.27 1.27 0 0 -2.54 1.27 0 0 -1.27 1.27 0 0 -2.54 1.27 0 0 -1.27 1.27 0 0 -2.54 1.27 0 0 -1.27 1.27 0 0 -1.27 1.27 0 0 -2.54 1.27 0 0 -1.27 1.27 0 0 -1.27 1.27 0 0 -2.54 1.27 0 0 -1.27 1.27 0 0 -2.54 1.27 0 0 -2.54 1.27 0 0 -1.27 1.27 0 0 -2.54 1.27 0 0 -2.54 1.27 0 0 -2.54 1.27 0 0 -3.81 1.27 0 0 -3.81 1.27 0 0 -15.25 -1.27 0 0 -3.81 -1.27 0 0 -2.54 -1.27 0 0 -3.81 -1.27 0 0 -2.54 -1.27 0 0 -2.54 -1.27 0 0 -1.27 -1.27 0 0 -2.54 -1.27 0 0 -2.54 -1.27 0 0 -1.27 -1.27 0 0 -2.54 -1.27 0 0 -1.27 -1.27 0 0 -1.27 -1.27 0 0 -2.54 -1.27 0 0 -1.27 -1.27 0 0 -1.27 -1.27 0 0 -2.54 -1.27 0 0 -1.27 -1.27 0 0 -2.54 -1.27 0 0 -1.27 -1.27 0 0 -1.27 -1.27 0 0 -2.54 -1.27 0 0 -1.27 -1.27 0 0 -2.54 -1.27 0 0 -1.27 -1.27 0 0 -2.54 -1.27 0 0 -1.27 -1.27 0 0 -2.54 -1.27 0 0 -1.27 -1.27 0 0 -2.54 -1.27 0 0 -1.27 -1.27 0 0 -2.54 -1.27 0 0 -1.27 -1.27 0 0 -2.54 -1.27 0 0 -1.27 -1.27 0 0 -2.54 -1.27 0 0 -1.27 -1.27 0 0 -2.54 -1.27 0 0 -1.27 -1.27 0 0 -2.54 -1.27 0 0 -1.27 -1.27 0 0 -2.54 -1.27 0 0 -2.54 -1.27 0 0 -1.27 -1.27 0 0 -2.54 -1.27 0 0 -1.27 -1.27 0 0 -2.54 -1.27 0 0 -1.27 -1.27 0 0 -2.54 -1.27 0 0 -1.27 -1.27 0 0 -2.54 -1.27 0 0 -1.27 -1.27 0 0 -2.54 -1.27 0 0 -1.27 -1.27 0 0 -2.54 -1.27 0 0 -1.27 -1.27 0 0 -2.54 -1.27 0 0 -1.27 -1.27 0 0 -2.54 -1.27 0 0 -1.27 -1.27 0 0 -2.54 -1.27 0 0 -1.27 -1.27 0 0 -2.54 -1.27 0 0 -1.27 -1.27 0 0 -2.54 -1.27 0 0 -2.54 -1.27 0 0 -1.27 -1.27 0 0 -2.54 -1.27 0 0 -1.27 -1.27 0 0 -2.54 -1.27 0 0 -1.27 -1.27 0 0 -2.54 -1.27 0 0 -1.27 -1.27 0 0 -2.54 -1.27 0 0 -1.27 -1.27 0 0 -2.54 -1.27 0 0 -1.27 -1.27 0 0 -2.54 -1.27 0 0 -1.27 -1.27 0 0 -2.54 -1.27 0 0 -1.27 -1.27 0 0 -2.54 -1.27 0 0 -2.54 -1.27 0 0 -1.27 -1.27 0 0 -2.54 -1.27 0 0 -1.27 -1.27 0 0 -2.54 -1.27 0 0 -1.27 -1.27 0 0 -2.54 -1.27 0 0 -1.27 -1.27 0 0 -2.54 -1.27 0 0 -1.27 -1.27 0 0 -2.54 -1.27 0 0 -1.27 -1.27 0 0 -2.54 -1.27 0 0 -1.27 -1.27 0 0 -2.54 -1.27 0 0 -1.27 -1.27 0 0 -2.54 -1.27 0 0 -2.54 -1.27 0 0 -1.27 -1.27 0 0 -2.54 -1.27 0 0 -1.27 -1.27 0 0 -2.54 -1.27 0 0 -1.27 -1.27 0 0 -2.54 -1.27 0 0 -1.27 -1.27 0 0 -2.54 -1.27 0 0 -1.27 -1.27 0 0 -2.54 -1.27 0 0 -2.54 -1.27 0 0 -1.27 -1.27 0 0 -2.54 -1.27 0 0 -1.27 -1.27 0 0 -2.54 -1.27 0 0 -1.27 -1.27 0 0 -2.54 -1.27 0 0 -1.27 -1.27 0 0 -2.54 -1.27 0 0 -1.27 -1.27 0 0 -2.54 -1.27 0 0 -1.27 -1.27 0 0 -2.54 -1.27 0 0 -1.27 -1.27 0 0 -1.27 -1.27 0 0 -1.27 -1.27 0 0 -2.54 -1.27 0 0 -1.27 -1.27 0 0 -1.27 -1.27 0 0 -1.27 -2.54 0 0 -1.27 -1.27 0 0 -1.27 -7.63 0 0 1.27z"/>
   <polygon class="fil0" points="1043.48,212.26 1037.13,212.26 1037.13,213.53 1032.05,213.53 1032.05,214.8 1028.23,214.8 1028.23,216.07 1025.69,216.07 1025.69,217.34 1021.88,217.34 1021.88,218.61 1019.34,218.61 1019.34,219.88 1016.79,219.88 1016.79,221.15 1015.52,221.15 1015.52,222.42 1012.98,222.42 1012.98,223.69 1010.44,223.69 1010.44,224.97 1009.17,224.97 1009.17,226.24 1006.63,226.24 1006.63,227.51 1005.35,227.51 1005.35,228.78 1004.08,228.78 1004.08,230.05 1001.54,230.05 1001.54,231.32 1000.27,231.32 1000.27,232.59 999,232.59 999,233.86 997.73,233.86 997.73,235.13 996.46,235.13 996.46,236.4 995.19,236.4 995.19,237.68 993.92,237.68 993.92,238.95 992.64,238.95 992.64,240.22 991.37,240.22 991.37,242.76 990.1,242.76 990.1,244.03 988.83,244.03 988.83,245.3 987.56,245.3 987.56,247.84 986.29,247.84 986.29,249.11 985.02,249.11 985.02,250.39 983.75,250.39 983.75,252.93 982.48,252.93 982.48,255.47 981.21,255.47 981.21,256.74 979.93,256.74 979.93,260.55 978.66,260.55 978.66,263.1 977.39,263.1 977.39,265.64 976.12,265.64 976.12,268.18 974.85,268.18 974.85,273.26 973.58,273.26 973.58,277.08 972.31,277.08 972.31,280.89 971.04,280.89 971.04,288.52 969.77,288.52 969.77,301.23 968.5,301.23 968.5,313.94 969.77,313.94 969.77,325.37 971.04,325.37 971.04,331.73 972.31,331.73 972.31,335.54 973.58,335.54 973.58,340.63 974.85,340.63 974.85,343.17 976.12,343.17 976.12,346.98 977.39,346.98 977.39,349.52 978.66,349.52 978.66,352.06 979.93,352.06 979.93,354.61 981.21,354.61 981.21,357.15 982.48,357.15 982.48,359.69 983.75,359.69 983.75,360.96 985.02,360.96 985.02,363.5 986.29,363.5 986.29,364.77 987.56,364.77 987.56,366.05 988.83,366.05 988.83,368.59 990.1,368.59 990.1,369.86 991.37,369.86 991.37,371.13 992.64,371.13 992.64,372.4 993.92,372.4 993.92,373.67 995.19,373.67 995.19,374.94 996.46,374.94 996.46,376.21 997.73,376.21 997.73,377.48 999,377.48 999,378.76 1000.27,378.76 1000.27,380.03 1001.54,380.03 1001.54,381.3 1004.08,381.3 1004.08,382.57 1005.35,382.57 1005.35,383.84 1006.63,383.84 1006.63,385.11 1009.17,385.11 1009.17,386.38 1010.44,386.38 1010.44,387.65 1012.98,387.65 1012.98,388.92 1015.52,388.92 1015.52,390.19 1016.79,390.19 1016.79,391.47 1019.34,391.47 1019.34,392.74 1021.88,392.74 1021.88,394.01 1025.69,394.01 1025.69,395.28 1028.23,395.28 1028.23,396.55 1032.05,396.55 1032.05,397.82 1037.13,397.82 1037.13,399.09 1042.21,399.09 1042.21,400.36 1049.84,400.36 1049.84,401.63 1068.9,401.63 1068.9,400.36 1077.8,400.36 1077.8,399.09 1084.16,399.09 1084.16,397.82 1087.97,397.82 1087.97,396.55 1091.78,396.55 1091.78,395.28 1095.59,395.28 1095.59,394.01 1098.14,394.01 1098.14,392.74 1100.68,392.74 1100.68,391.47 1103.22,391.47 1103.22,390.19 1105.76,390.19 1105.76,388.92 1108.3,388.92 1108.3,387.65 1109.58,387.65 1109.58,386.38 1112.12,386.38 1112.12,385.11 1113.39,385.11 1113.39,383.84 1115.93,383.84 1115.93,382.57 1117.2,382.57 1117.2,381.3 1118.47,381.3 1118.47,380.03 1119.74,380.03 1119.74,378.76 1122.29,378.76 1122.29,377.48 1123.56,377.48 1123.56,376.21 1124.83,376.21 1124.83,374.94 1126.1,374.94 1126.1,373.67 1127.37,373.67 1127.37,372.4 1128.64,372.4 1128.64,371.13 1129.91,371.13 1129.91,368.59 1131.18,368.59 1131.18,367.32 1132.45,367.32 1132.45,366.05 1133.72,366.05 1133.72,364.77 1135,364.77 1135,362.23 1136.27,362.23 1136.27,360.96 1137.54,360.96 1137.54,359.69 1138.81,359.69 1138.81,357.15 1140.08,357.15 1140.08,354.61 1141.35,354.61 1141.35,353.34 1142.62,353.34 1142.62,350.79 1143.89,350.79 1143.89,348.25 1145.16,348.25 1145.16,345.71 1146.43,345.71 1146.43,343.17 1147.71,343.17 1147.71,340.63 1148.98,340.63 1148.98,336.81 1150.25,336.81 1150.25,333 1151.52,333 1151.52,329.19 1152.79,329.19 1152.79,324.1 1154.06,324.1 1154.06,315.21 1155.33,315.21 1155.33,297.41 1154.06,297.41 1154.06,288.52 1152.79,288.52 1152.79,283.43 1151.52,283.43 1151.52,278.35 1150.25,278.35 1150.25,275.81 1148.98,275.81 1148.98,271.99 1147.71,271.99 1147.71,269.45 1146.43,269.45 1146.43,265.64 1145.16,265.64 1145.16,263.1 1143.89,263.1 1143.89,260.55 1142.62,260.55 1142.62,259.28 1141.35,259.28 1141.35,256.74 1140.08,256.74 1140.08,254.2 1138.81,254.2 1138.81,252.93 1137.54,252.93 1137.54,251.66 1136.27,251.66 1136.27,249.11 1135,249.11 1135,247.84 1133.72,247.84 1133.72,246.57 1132.45,246.57 1132.45,245.3 1131.18,245.3 1131.18,242.76 1129.91,242.76 1129.91,241.49 1128.64,241.49 1128.64,240.22 1127.37,240.22 1127.37,238.95 1126.1,238.95 1126.1,237.68 1124.83,237.68 1124.83,236.4 1123.56,236.4 1123.56,235.13 1122.29,235.13 1122.29,233.86 1119.74,233.86 1119.74,232.59 1118.47,232.59 1118.47,231.32 1117.2,231.32 1117.2,230.05 1115.93,230.05 1115.93,228.78 1113.39,228.78 1113.39,227.51 1112.12,227.51 1112.12,226.24 1109.58,226.24 1109.58,224.97 1107.03,224.97 1107.03,223.69 1105.76,223.69 1105.76,222.42 1103.22,222.42 1103.22,221.15 1100.68,221.15 1100.68,219.88 1098.14,219.88 1098.14,218.61 1094.32,218.61 1094.32,217.34 1091.78,217.34 1091.78,216.07 1087.97,216.07 1087.97,214.8 1084.16,214.8 1084.16,213.53 1079.07,213.53 1079.07,212.26 1073.99,212.26 1073.99,210.98 1043.48,210.98 "/>
   <polygon class="fil0" points="302.5,212.26 296.14,212.26 296.14,213.53 291.06,213.53 291.06,214.8 287.24,214.8 287.24,216.07 283.43,216.07 283.43,217.34 280.89,217.34 280.89,218.61 277.08,218.61 277.08,219.88 274.53,219.88 274.53,221.15 271.99,221.15 271.99,222.42 269.45,222.42 269.45,223.69 266.91,223.69 266.91,224.97 265.64,224.97 265.64,226.24 263.1,226.24 263.1,227.51 261.82,227.51 261.82,228.78 259.28,228.78 259.28,230.05 258.01,230.05 258.01,231.32 256.74,231.32 256.74,232.59 255.47,232.59 255.47,233.86 252.93,233.86 252.93,235.13 251.66,235.13 251.66,236.4 250.38,236.4 250.38,237.68 249.11,237.68 249.11,238.95 247.84,238.95 247.84,240.22 246.57,240.22 246.57,241.49 245.3,241.49 245.3,242.76 244.03,242.76 244.03,245.3 242.76,245.3 242.76,246.57 241.49,246.57 241.49,247.84 240.22,247.84 240.22,249.11 238.95,249.11 238.95,251.66 237.68,251.66 237.68,252.93 236.4,252.93 236.4,254.2 235.13,254.2 235.13,256.74 233.86,256.74 233.86,259.28 232.59,259.28 232.59,260.55 231.32,260.55 231.32,263.1 230.05,263.1 230.05,265.64 228.78,265.64 228.78,269.45 227.51,269.45 227.51,271.99 226.24,271.99 226.24,275.81 224.97,275.81 224.97,279.62 223.69,279.62 223.69,283.43 222.42,283.43 222.42,289.79 221.15,289.79 221.15,298.68 219.88,298.68 219.88,313.94 221.15,313.94 221.15,322.83 222.42,322.83 222.42,327.92 223.69,327.92 223.69,333 224.97,333 224.97,336.81 226.24,336.81 226.24,339.35 227.51,339.35 227.51,341.9 228.78,341.9 228.78,345.71 230.05,345.71 230.05,348.25 231.32,348.25 231.32,350.79 232.59,350.79 232.59,352.06 233.86,352.06 233.86,354.61 235.13,354.61 235.13,357.15 236.4,357.15 236.4,358.42 237.68,358.42 237.68,360.96 238.95,360.96 238.95,362.23 240.22,362.23 240.22,364.77 241.49,364.77 241.49,366.05 242.76,366.05 242.76,367.32 244.03,367.32 244.03,368.59 245.3,368.59 245.3,371.13 246.57,371.13 246.57,372.4 247.84,372.4 247.84,373.67 249.11,373.67 249.11,374.94 250.38,374.94 250.38,376.21 251.66,376.21 251.66,377.48 254.2,377.48 254.2,378.76 255.47,378.76 255.47,380.03 256.74,380.03 256.74,381.3 258.01,381.3 258.01,382.57 260.55,382.57 260.55,383.84 261.82,383.84 261.82,385.11 263.1,385.11 263.1,386.38 265.64,386.38 265.64,387.65 266.91,387.65 266.91,388.92 269.45,388.92 269.45,390.19 271.99,390.19 271.99,391.47 274.53,391.47 274.53,392.74 277.08,392.74 277.08,394.01 279.62,394.01 279.62,395.28 283.43,395.28 283.43,396.55 285.97,396.55 285.97,397.82 291.06,397.82 291.06,399.09 297.41,399.09 297.41,400.36 305.04,400.36 305.04,401.63 324.1,401.63 324.1,400.36 333,400.36 333,399.09 338.08,399.09 338.08,397.82 341.9,397.82 341.9,396.55 346.98,396.55 346.98,395.28 349.52,395.28 349.52,394.01 353.34,394.01 353.34,392.74 355.88,392.74 355.88,391.47 358.42,391.47 358.42,390.19 360.96,390.19 360.96,388.92 362.23,388.92 362.23,387.65 364.77,387.65 364.77,386.38 366.05,386.38 366.05,385.11 368.59,385.11 368.59,383.84 369.86,383.84 369.86,382.57 372.4,382.57 372.4,381.3 373.67,381.3 373.67,380.03 374.94,380.03 374.94,378.76 376.21,378.76 376.21,377.48 377.48,377.48 377.48,376.21 378.76,376.21 378.76,374.94 380.03,374.94 380.03,373.67 381.3,373.67 381.3,372.4 382.57,372.4 382.57,371.13 383.84,371.13 383.84,369.86 385.11,369.86 385.11,368.59 386.38,368.59 386.38,366.05 387.65,366.05 387.65,364.77 388.92,364.77 388.92,363.5 390.19,363.5 390.19,360.96 391.47,360.96 391.47,359.69 392.74,359.69 392.74,357.15 394.01,357.15 394.01,354.61 395.28,354.61 395.28,352.06 396.55,352.06 396.55,350.79 397.82,350.79 397.82,346.98 399.09,346.98 399.09,344.44 400.36,344.44 400.36,340.63 401.63,340.63 401.63,336.81 402.9,336.81 402.9,331.73 404.18,331.73 404.18,325.37 405.45,325.37 405.45,316.48 406.72,316.48 406.72,299.95 405.45,299.95 405.45,288.52 404.18,288.52 404.18,280.89 402.9,280.89 402.9,277.08 401.63,277.08 401.63,271.99 400.36,271.99 400.36,268.18 399.09,268.18 399.09,265.64 397.82,265.64 397.82,263.1 396.55,263.1 396.55,260.55 395.28,260.55 395.28,258.01 394.01,258.01 394.01,255.47 392.74,255.47 392.74,252.93 391.47,252.93 391.47,251.66 390.19,251.66 390.19,249.11 388.92,249.11 388.92,246.57 387.65,246.57 387.65,245.3 386.38,245.3 386.38,244.03 385.11,244.03 385.11,242.76 383.84,242.76 383.84,240.22 382.57,240.22 382.57,238.95 381.3,238.95 381.3,237.68 380.03,237.68 380.03,236.4 378.76,236.4 378.76,235.13 377.48,235.13 377.48,233.86 376.21,233.86 376.21,232.59 374.94,232.59 374.94,231.32 373.67,231.32 373.67,230.05 371.13,230.05 371.13,228.78 369.86,228.78 369.86,227.51 368.59,227.51 368.59,226.24 366.05,226.24 366.05,224.97 364.77,224.97 364.77,223.69 362.23,223.69 362.23,222.42 359.69,222.42 359.69,221.15 358.42,221.15 358.42,219.88 355.88,219.88 355.88,218.61 353.34,218.61 353.34,217.34 349.52,217.34 349.52,216.07 346.98,216.07 346.98,214.8 343.17,214.8 343.17,213.53 338.08,213.53 338.08,212.26 331.73,212.26 331.73,210.98 302.5,210.98 "/>
   <path class="fil0" d="M142.95 1010.91c21.15,-4.25 42.31,-8.5 63.46,-12.75 -8.73,-43.41 -31.05,-75.73 -95.18,-73.92 -29.96,1.61 -53.64,13.34 -67.71,37.9 -15.72,22.49 -16.79,46.3 -4.69,67.65 10.45,18.43 29.38,32.77 46.51,38.33 19.41,6.29 54.79,10.24 59.65,23.67 4.03,8.9 -0.75,15.75 -13.6,22.39 -4.57,2.36 -11.12,3.7 -16.89,2.39 -10.46,-2.37 -19.93,-10.36 -21.44,-14.82 -2.36,-6.92 -0.8,-10.72 -0.59,-11.02 -21.57,4.53 -43.07,7.64 -64.64,12.17 4.18,19.12 11.12,39.54 34.46,57.75 23.74,15.42 52.72,23.46 96.48,10.66 18.38,-9.17 39.65,-20.68 49.04,-45.66 11.41,-30.37 1.41,-55.95 -18.12,-70.23 -15.77,-14.79 -37.49,-21.39 -59.19,-26.8 -27.93,-6.96 -36.03,-15.84 -31.79,-30.98 3.31,-11.82 13.89,-13.73 24.43,-12.39 20.11,2.55 17.34,16.78 19.81,25.67z"/>
   <path class="fil0" d="M469.92 924.61c73.33,0 132.77,56.71 132.77,126.67 0,69.96 -59.45,126.67 -132.77,126.67 -73.33,0 -132.77,-56.71 -132.77,-126.67 0,-69.96 59.45,-126.67 132.77,-126.67zm0.68 60.47c38.76,0 70.18,29.5 70.18,65.89 0,36.39 -31.42,65.89 -70.18,65.89 -38.76,0 -70.18,-29.5 -70.18,-65.89 0,-36.39 31.42,-65.89 70.18,-65.89z"/>
   <polygon class="fil0" points="698.26,926.08 804.09,1175.03 816,1175.34 858.77,1068.54 903.35,1174.4 915.29,1174.4 1020.56,925.92 955.62,925.79 909.04,1033.18 862.78,923.35 857.43,923.27 810.51,1033.45 764.03,925.78 "/>
   <path class="fil0" d="M1090.38 1174.56l65.83 0.38 19.19 -37.11 86.16 -0.89 20.08 37.43 65.83 0.19 -121.04 -248.38 -14.49 0.19 -121.57 248.19zm128.38 -120.06l-16.52 32.18 32.41 0.25 -15.89 -32.44z"/>
  </g>
 </g>
</svg>
