<svg xmlns="http://www.w3.org/2000/svg" width="26" height="18.97" viewBox="0 0 26 18.97"><title>sound-on</title><g id="sound-on" style="isolation:isolate"><path d="M18.83,4.38a1,1,0,0,0-.23,1.35,6.63,6.63,0,0,1,0,7.56,1,1,0,0,0,.23,1.35,1,1,0,0,0,.55.18,1,1,0,0,0,.78-.41,8.57,8.57,0,0,0,0-9.8A1,1,0,0,0,18.83,4.38ZM23.5,1.54a1,1,0,0,0-1.34-.23,1,1,0,0,0-.23,1.35,11.87,11.87,0,0,1,2.15,6.85,11.84,11.84,0,0,1-2.15,6.85,1,1,0,0,0,.23,1.35,1,1,0,0,0,.55.18,1,1,0,0,0,.78-.41,13.79,13.79,0,0,0,2.5-8A13.82,13.82,0,0,0,23.5,1.54ZM15.11.27a1.7,1.7,0,0,0-1.76,0l-.06,0L7.94,4.05A1,1,0,0,0,7.69,5.4,1,1,0,0,0,9,5.65l5-3.5V16.87L9.26,13.19A1,1,0,0,0,8.7,13H4.12A2.14,2.14,0,0,1,2,10.78V8.05A2.14,2.14,0,0,1,4.12,5.82a1,1,0,0,0,0-1.94A4.15,4.15,0,0,0,0,8.05v2.76A4.15,4.15,0,0,0,4.12,15H8.39l4.88,3.72.08.05a1.79,1.79,0,0,0,.9.25,1.62,1.62,0,0,0,.86-.25,1.8,1.8,0,0,0,.9-1.57V1.84A1.79,1.79,0,0,0,15.11.27Z" transform="translate(0 -0.03)" fill="#fff" fill-rule="evenodd"/></g></svg>