<svg xmlns="http://www.w3.org/2000/svg" width="26.08" height="19.03" viewBox="0 0 26.08 19.03"><title>sound-off</title><g id="sound-off" style="isolation:isolate"><path d="M15.12.22a1.89,1.89,0,0,0-1.88,0l-.06,0L7.9,4a1,1,0,0,0-.24,1.36A.94.94,0,0,0,9,5.63l5-3.55V16.89l-4.77-3.7A1,1,0,0,0,8.67,13H4.17A2.2,2.2,0,0,1,2,10.79V8A2.2,2.2,0,0,1,4.17,5.8a1,1,0,0,0,.93-1,1,1,0,0,0-1-1A4.19,4.19,0,0,0,0,8v2.76A4.19,4.19,0,0,0,4.14,15H8.36l4.82,3.73.08.05a1.75,1.75,0,0,0,.89.25,2.08,2.08,0,0,0,1-.25A1.82,1.82,0,0,0,16,17.17V1.81A1.83,1.83,0,0,0,15.12.22ZM23.3,9.49l2.49-2.56a1,1,0,0,0,0-1.39,1,1,0,0,0-1.36,0L18.1,12a1,1,0,0,0,0,1.39.93.93,0,0,0,1.35,0l2.49-2.56,2.49,2.56a.93.93,0,0,0,1.35,0,1,1,0,0,0,0-1.39ZM19.16,8a.93.93,0,0,0,1.35,0,1,1,0,0,0,0-1.39L19.45,5.54a1,1,0,0,0-1.36,0,1,1,0,0,0,0,1.39Z" transform="translate(0.01 0.03)" fill="#fff" fill-rule="evenodd"/></g></svg>