<svg xmlns="http://www.w3.org/2000/svg" viewBox="0 0 512 512">
  <path fill="#fff" d="M480 309.574V352h-42.426L384 298.426 330.426 352H288v-42.426L341.574 256 288 202.426V160h42.426L384 213.574 437.574 160H480v42.426L426.426 256 480 309.574zM208.003 480c-4.164 0-8.256-1.625-11.317-4.687L73.373 352H16c-8.836 0-16-7.163-16-16V176c0-8.836 7.164-16 16-16h57.373L196.686 36.686c4.577-4.577 11.458-5.945 17.437-3.468S224 41.529 224 48v416c0 6.472-3.898 12.306-9.877 14.782-1.979.82-4.059 1.218-6.12 1.218z"/>
</svg>