<svg xmlns="http://www.w3.org/2000/svg" width="359" height="359">
  <path fill="#C7C9D1" fill-rule="evenodd" d="M266.143 177.313c-.6 1.152-1.296 2.196-2.088 3.132-.792.936-1.704 1.753-2.736 2.448-1.032.697-2.244 1.188-3.636 1.476-.48 1.969-1.284 3.829-2.412 5.58-1.128 1.753-2.52 3.289-4.176 4.608-1.656 1.321-3.576 2.329-5.76 3.024-2.184.697-4.596.972-7.236.828h.072c-3.072-.191-5.616-.864-7.632-2.016-2.016-1.152-3.576-2.603-4.68-4.356-1.104-1.751-1.776-3.708-2.016-5.868-.239-2.16-.119-4.32.36-6.48.528-2.16 1.404-4.212 2.628-6.156 1.224-1.944 2.748-3.6 4.572-4.968 1.824-1.368 3.948-2.351 6.372-2.952 2.424-.599 5.1-.635 8.028-.108 2.352.432 4.368 1.201 6.048 2.304 1.68 1.105 3.012 2.412 3.996 3.924s1.656 3.168 2.016 4.968c.36 1.8.444 3.613.252 5.436 2.112-.576 3.828-1.667 5.148-3.276 1.32-1.607 2.436-3.467 3.348-5.58l1.224.504c-.528 1.201-1.092 2.376-1.692 3.528zm-27.36-3.024c-.888 2.113-1.644 4.369-2.268 6.768-.432 1.681-.768 3.337-1.008 4.968-.24 1.633-.336 3.109-.288 4.428.048 1.321.24 2.425.576 3.312.336.889.84 1.429 1.512 1.62.72.193 1.476-.036 2.268-.684.792-.648 1.548-1.571 2.268-2.772.72-1.199 1.392-2.615 2.016-4.248.624-1.631 1.176-3.312 1.656-5.04-1.968-1.343-3.384-3.191-4.248-5.544-.864-2.351-.744-4.968.36-7.848-1.008 1.249-1.956 2.929-2.844 5.04zm8.1-4.5c-.336-.839-.768-1.235-1.296-1.188-.624.097-1.2.673-1.728 1.728-.528 1.057-.792 2.281-.792 3.672 0 1.105.216 2.232.648 3.384.432 1.152 1.2 2.209 2.304 3.168.288-1.247.504-2.387.648-3.42.144-1.031.264-1.955.36-2.772.24-2.207.192-3.731-.144-4.572zm-25.235.756c-.312.673-.66 1.681-1.044 3.024l-6.912 25.632c-.096.384-.252.936-.468 1.656-.216.72-.396 1.272-.54 1.656-.768 2.208-1.848 4.104-3.24 5.688-1.392 1.584-2.964 2.88-4.716 3.888-1.752 1.008-3.636 1.752-5.652 2.232-2.016.48-4.032.72-6.048.72-1.584 0-3.132-.204-4.644-.612-1.512-.408-2.856-1.02-4.032-1.836-1.176-.816-2.171-1.836-2.988-3.06-.815-1.224-1.343-2.652-1.584-4.284.72-1.248 1.573-2.124 2.556-2.628.984-.504 1.992-.72 3.024-.648 1.032.072 2.076.36 3.132.864s2.064 1.14 3.024 1.908l-.432 1.728c-.192.768-.36 1.548-.504 2.34-.144.792-.18 1.512-.108 2.16.072.648.372 1.044.9 1.188.528.144 1.176.084 1.944-.18s1.548-.816 2.34-1.656c.792-.84 1.584-1.98 2.376-3.42.792-1.44 1.476-3.264 2.052-5.472.048-.192.144-.552.288-1.08s.24-.912.288-1.152l1.152-4.392c-1.104.913-2.412 1.741-3.924 2.484-1.512.745-3.18 1.116-5.004 1.116-2.112 0-3.924-.587-5.436-1.764-1.512-1.175-2.664-2.723-3.456-4.644-.792-1.919-1.175-4.127-1.152-6.624.025-2.495.54-5.087 1.548-7.776 1.584-4.271 3.948-7.452 7.092-9.54 3.144-2.088 6.828-3.083 11.052-2.988 1.344.049 2.712.216 4.104.504 1.392.288 2.688.769 3.888 1.44 1.248-1.199 2.88-1.692 4.896-1.476 2.016.216 4.608 1.165 7.776 2.844l-.288.792c-.528.241-.948.697-1.26 1.368zm-13.572-1.728c-1.344-.047-2.58.205-3.708.756-1.128.553-2.136 1.296-3.024 2.232-.888.936-1.668 2.005-2.34 3.204-.672 1.201-1.224 2.425-1.656 3.672-.48 1.296-.828 2.664-1.044 4.104-.216 1.44-.24 2.772-.072 3.996.168 1.224.564 2.304 1.188 3.24.624.936 1.512 1.548 2.664 1.836.864.193 1.752.049 2.664-.432l5.184-19.368c.144-.576.312-1.127.504-1.656.192-.527.408-1.008.648-1.44-.384-.095-.72-.144-1.008-.144zm-26.819 11.628c-.792.936-1.704 1.753-2.736 2.448-1.033.697-2.244 1.188-3.636 1.476-.48 1.969-1.285 3.829-2.412 5.58-1.128 1.753-2.52 3.289-4.176 4.608-1.656 1.321-3.576 2.329-5.76 3.024-2.185.697-4.597.972-7.236.828h.072c-3.072-.191-5.616-.864-7.632-2.016-2.016-1.152-3.576-2.603-4.68-4.356-1.105-1.751-1.776-3.708-2.016-5.868s-.119-4.32.36-6.48c.528-2.16 1.404-4.212 2.628-6.156 1.224-1.944 2.747-3.6 4.572-4.968 1.824-1.368 3.948-2.351 6.372-2.952 2.423-.599 5.1-.635 8.028-.108 2.351.432 4.367 1.201 6.048 2.304 1.68 1.105 3.012 2.412 3.996 3.924.983 1.512 1.656 3.168 2.016 4.968.36 1.8.443 3.613.252 5.436 2.112-.576 3.827-1.667 5.148-3.276 1.32-1.607 2.436-3.467 3.348-5.58l1.224.504c-.529 1.201-1.092 2.376-1.692 3.528-.601 1.152-1.296 2.196-2.088 3.132zm-25.272-6.156c-.889 2.113-1.645 4.369-2.268 6.768-.432 1.681-.768 3.337-1.008 4.968-.241 1.633-.336 3.109-.288 4.428.047 1.321.24 2.425.576 3.312.335.889.839 1.429 1.512 1.62.72.193 1.476-.036 2.268-.684.792-.648 1.548-1.571 2.268-2.772.72-1.199 1.392-2.615 2.016-4.248.623-1.631 1.176-3.312 1.656-5.04-1.969-1.343-3.384-3.191-4.248-5.544-.864-2.351-.745-4.968.36-7.848-1.008 1.249-1.956 2.929-2.844 5.04zm8.1-4.5c-.336-.839-.768-1.235-1.296-1.188-.624.097-1.2.673-1.728 1.728-.529 1.057-.792 2.281-.792 3.672 0 1.105.216 2.232.648 3.384.432 1.152 1.199 2.209 2.304 3.168.288-1.247.504-2.387.648-3.42.144-1.031.263-1.955.36-2.772.24-2.207.191-3.731-.144-4.572zm-28.116 29.304c-1.128 1.416-2.484 2.46-4.068 3.132-1.872.768-3.816.924-5.832.468s-4.008-1.116-5.976-1.98c-1.968-.864-3.864-1.715-5.688-2.556-1.824-.839-3.48-1.283-4.968-1.332-.816 0-1.536.072-2.16.216-.624.144-1.248.313-1.872.504-.624.193-1.284.373-1.98.54-.696.169-1.5.252-2.412.252-.384 0-.816-.011-1.296-.036-.48-.023-.972-.119-1.476-.288-.504-.167-.996-.443-1.476-.828-.48-.383-.888-.911-1.224-1.584l.432-.72c1.056 0 2.016-.36 2.88-1.08.864-.72 1.62-1.631 2.268-2.736.648-1.103 1.2-2.279 1.656-3.528.456-1.247.828-2.376 1.116-3.384.192-.815.504-1.967.936-3.456.432-1.487.912-3.168 1.44-5.04.528-1.872 1.068-3.816 1.62-5.832s1.092-3.947 1.62-5.796c.528-1.847 1.008-3.515 1.44-5.004.432-1.487.744-2.639.936-3.456.336-1.247.696-2.531 1.08-3.852.384-1.319.792-2.387 1.224-3.204 1.008-1.967 2.388-3.431 4.14-4.392 1.752-.959 3.708-1.487 5.868-1.584 1.536-.095 3.072.036 4.608.396 1.536.36 2.928.925 4.176 1.692l-1.224 1.584c-1.104-.671-2.088-.815-2.952-.432-.864.385-1.56 1.584-2.088 3.6-1.44 5.377-2.904 10.717-4.392 16.02-1.488 5.305-2.976 10.645-4.464 16.02-.192.72-.444 1.573-.756 2.556-.312.985-.66 1.98-1.044 2.988s-.804 1.957-1.26 2.844c-.456.889-.924 1.573-1.404 2.052.288-.095.612-.216.972-.36s.768-.288 1.224-.432c.456-.144 1.008-.263 1.656-.36.648-.095 1.428-.119 2.34-.072.672.049 1.548.18 2.628.396 1.08.216 2.244.409 3.492.576 1.248.169 2.496.252 3.744.252 1.248 0 2.364-.227 3.348-.684.984-.455 1.776-1.163 2.376-2.124.6-.959.852-2.327.756-4.104l.792-.504c1.104 1.345 1.776 2.905 2.016 4.68.24 1.777.12 3.528-.36 5.256-.48 1.728-1.284 3.301-2.412 4.716z"/>
</svg>
